<svg width="380" height="77" viewBox="0 0 380 77" fill="none" xmlns="http://www.w3.org/2000/svg">
<path d="M3.11861 15V4.81818H6.74787C7.5367 4.81818 8.19129 4.95407 8.71165 5.22585C9.23532 5.49763 9.62642 5.87382 9.88494 6.3544C10.1435 6.83168 10.2727 7.38352 10.2727 8.00994C10.2727 8.63305 10.1418 9.18158 9.87997 9.65554C9.62145 10.1262 9.23035 10.4924 8.70668 10.7543C8.18632 11.0161 7.53172 11.147 6.7429 11.147H3.99361V9.82457H6.60369C7.10085 9.82457 7.50521 9.75331 7.81676 9.6108C8.13163 9.46828 8.36198 9.26113 8.50781 8.98935C8.65365 8.71757 8.72656 8.3911 8.72656 8.00994C8.72656 7.62547 8.65199 7.29238 8.50284 7.01065C8.35701 6.72893 8.12666 6.51349 7.81179 6.36435C7.50024 6.21188 7.09091 6.13565 6.58381 6.13565H4.65483V15H3.11861ZM8.14489 10.4062L10.6605 15H8.91051L6.4446 10.4062H8.14489ZM15.1182 15.1541C14.3658 15.1541 13.7179 14.9934 13.1743 14.6719C12.6341 14.3471 12.2165 13.8913 11.9215 13.3047C11.6298 12.7147 11.484 12.0237 11.484 11.2315C11.484 10.4493 11.6298 9.75994 11.9215 9.16335C12.2165 8.56676 12.6274 8.10109 13.1544 7.76633C13.6847 7.43158 14.3045 7.2642 15.0138 7.2642C15.4447 7.2642 15.8623 7.33546 16.2667 7.47798C16.671 7.6205 17.0339 7.84422 17.3554 8.14915C17.6769 8.45407 17.9305 8.85014 18.1161 9.33736C18.3017 9.82126 18.3945 10.4096 18.3945 11.1023V11.6293H12.3242V10.5156H16.9378C16.9378 10.1245 16.8583 9.77817 16.6992 9.47656C16.5401 9.17164 16.3164 8.93134 16.028 8.75568C15.743 8.58002 15.4082 8.49219 15.0238 8.49219C14.6061 8.49219 14.2416 8.59493 13.93 8.80043C13.6218 9.0026 13.3831 9.26776 13.2141 9.59588C13.0484 9.92069 12.9655 10.2737 12.9655 10.6548V11.5249C12.9655 12.0353 13.055 12.4695 13.234 12.8274C13.4163 13.1854 13.6698 13.4588 13.9946 13.6477C14.3194 13.8333 14.6989 13.9261 15.1331 13.9261C15.4149 13.9261 15.6717 13.8864 15.9037 13.8068C16.1357 13.724 16.3363 13.6013 16.5053 13.4389C16.6743 13.2765 16.8036 13.076 16.8931 12.8374L18.3 13.0909C18.1873 13.5052 17.9852 13.8681 17.6935 14.1797C17.4051 14.4879 17.0422 14.7282 16.6047 14.9006C16.1705 15.0696 15.675 15.1541 15.1182 15.1541ZM25.6661 9.22798L24.3188 9.46662C24.2625 9.29427 24.173 9.13021 24.0504 8.97443C23.931 8.81865 23.7686 8.69105 23.5631 8.59162C23.3576 8.49219 23.1008 8.44247 22.7925 8.44247C22.3716 8.44247 22.0203 8.53693 21.7386 8.72585C21.4568 8.91146 21.316 9.15175 21.316 9.44673C21.316 9.70194 21.4104 9.90743 21.5994 10.0632C21.7883 10.219 22.0932 10.3466 22.5141 10.446L23.7272 10.7244C24.4299 10.8868 24.9535 11.1371 25.2982 11.4751C25.6429 11.8132 25.8153 12.2524 25.8153 12.7926C25.8153 13.25 25.6827 13.6577 25.4175 14.0156C25.1557 14.3703 24.7895 14.6487 24.3188 14.8509C23.8515 15.053 23.3096 15.1541 22.6931 15.1541C21.838 15.1541 21.1403 14.9718 20.6001 14.6072C20.0598 14.2393 19.7284 13.7173 19.6058 13.0412L21.0425 12.8224C21.132 13.197 21.316 13.4804 21.5944 13.6726C21.8728 13.8615 22.2357 13.956 22.6832 13.956C23.1704 13.956 23.5598 13.8549 23.8515 13.6527C24.1432 13.4472 24.289 13.197 24.289 12.902C24.289 12.6634 24.1995 12.4628 24.0205 12.3004C23.8449 12.138 23.5747 12.0154 23.2102 11.9325L21.9175 11.6491C21.2049 11.4867 20.678 11.2282 20.3366 10.8736C19.9985 10.5189 19.8295 10.0698 19.8295 9.52628C19.8295 9.07552 19.9554 8.68111 20.2073 8.34304C20.4592 8.00497 20.8072 7.74148 21.2513 7.55256C21.6955 7.36032 22.2042 7.2642 22.7776 7.2642C23.6029 7.2642 24.2525 7.44318 24.7265 7.80114C25.2004 8.15578 25.5137 8.63139 25.6661 9.22798ZM32.187 11.8331V7.36364H33.6785V15H32.2169V13.6776H32.1373C31.9617 14.0852 31.6799 14.425 31.2922 14.6967C30.9077 14.9652 30.4288 15.0994 29.8554 15.0994C29.3648 15.0994 28.9306 14.9917 28.5528 14.7763C28.1783 14.5575 27.8833 14.2344 27.6679 13.8068C27.4557 13.3793 27.3497 12.8506 27.3497 12.2209V7.36364H28.8362V12.0419C28.8362 12.5623 28.9804 12.9766 29.2687 13.2848C29.5571 13.593 29.9316 13.7472 30.3923 13.7472C30.6707 13.7472 30.9475 13.6776 31.2226 13.5384C31.501 13.3991 31.7313 13.1887 31.9136 12.907C32.0992 12.6252 32.1904 12.2673 32.187 11.8331ZM35.5759 15V7.36364H37.0027V8.60653H37.0972C37.2562 8.18561 37.5164 7.85748 37.8777 7.62216C38.239 7.38352 38.6715 7.2642 39.1753 7.2642C39.6857 7.2642 40.1133 7.38352 40.458 7.62216C40.806 7.8608 41.0628 8.18892 41.2285 8.60653H41.3081C41.4904 8.19886 41.7804 7.87405 42.1781 7.6321C42.5759 7.38684 43.0498 7.2642 43.6 7.2642C44.2927 7.2642 44.8578 7.4813 45.2953 7.91548C45.7361 8.34967 45.9565 9.00426 45.9565 9.87926V15H44.47V10.0185C44.47 9.50142 44.3292 9.12689 44.0474 8.89489C43.7657 8.66288 43.4293 8.54688 43.0382 8.54688C42.5543 8.54688 42.1781 8.69602 41.9097 8.99432C41.6412 9.2893 41.507 9.6688 41.507 10.1328V15H40.0254V9.92401C40.0254 9.50971 39.8962 9.17661 39.6376 8.92472C39.3791 8.67282 39.0427 8.54688 38.6284 8.54688C38.3467 8.54688 38.0865 8.62145 37.8479 8.7706C37.6125 8.91643 37.422 9.12026 37.2761 9.3821C37.1336 9.64394 37.0624 9.94721 37.0624 10.2919V15H35.5759ZM51.1401 15.1541C50.3877 15.1541 49.7398 14.9934 49.1962 14.6719C48.656 14.3471 48.2383 13.8913 47.9434 13.3047C47.6517 12.7147 47.5059 12.0237 47.5059 11.2315C47.5059 10.4493 47.6517 9.75994 47.9434 9.16335C48.2383 8.56676 48.6493 8.10109 49.1763 7.76633C49.7066 7.43158 50.3264 7.2642 51.0357 7.2642C51.4666 7.2642 51.8842 7.33546 52.2885 7.47798C52.6929 7.6205 53.0558 7.84422 53.3773 8.14915C53.6988 8.45407 53.9524 8.85014 54.138 9.33736C54.3236 9.82126 54.4164 10.4096 54.4164 11.1023V11.6293H48.3461V10.5156H52.9597C52.9597 10.1245 52.8801 9.77817 52.7211 9.47656C52.562 9.17164 52.3382 8.93134 52.0499 8.75568C51.7649 8.58002 51.4301 8.49219 51.0456 8.49219C50.628 8.49219 50.2634 8.59493 49.9519 8.80043C49.6436 9.0026 49.405 9.26776 49.236 9.59588C49.0703 9.92069 48.9874 10.2737 48.9874 10.6548V11.5249C48.9874 12.0353 49.0769 12.4695 49.2559 12.8274C49.4382 13.1854 49.6917 13.4588 50.0165 13.6477C50.3413 13.8333 50.7208 13.9261 51.155 13.9261C51.4367 13.9261 51.6936 13.8864 51.9256 13.8068C52.1576 13.724 52.3581 13.6013 52.5272 13.4389C52.6962 13.2765 52.8255 13.076 52.915 12.8374L54.3219 13.0909C54.2092 13.5052 54.007 13.8681 53.7154 14.1797C53.427 14.4879 53.0641 14.7282 52.6266 14.9006C52.1924 15.0696 51.6969 15.1541 51.1401 15.1541Z" fill="#272D37"/>
<g filter="url(#filter0_d_736_66294)">
<g clip-path="url(#clip0_736_66294)">
<path d="M2.5 34C2.5 30.9624 4.96243 28.5 8 28.5H289.5V73.5H7.99999C4.96243 73.5 2.5 71.0376 2.5 68V34Z" fill="white"/>
<path d="M27.9716 45.0909V56H26.6932L20.7486 47.4347H20.642V56H19.321V45.0909H20.5994L26.5653 53.6776H26.6719V45.0909H27.9716ZM33.6684 56.1705C32.9297 56.1705 32.2817 55.9947 31.7241 55.6431C31.1702 55.2915 30.7369 54.7997 30.4244 54.1676C30.1155 53.5355 29.961 52.7969 29.961 51.9517C29.961 51.0994 30.1155 50.3555 30.4244 49.7198C30.7369 49.0842 31.1702 48.5906 31.7241 48.239C32.2817 47.8874 32.9297 47.7116 33.6684 47.7116C34.407 47.7116 35.0533 47.8874 35.6073 48.239C36.1648 48.5906 36.5981 49.0842 36.907 49.7198C37.2195 50.3555 37.3758 51.0994 37.3758 51.9517C37.3758 52.7969 37.2195 53.5355 36.907 54.1676C36.5981 54.7997 36.1648 55.2915 35.6073 55.6431C35.0533 55.9947 34.407 56.1705 33.6684 56.1705ZM33.6684 55.0412C34.2295 55.0412 34.6911 54.8974 35.0533 54.6097C35.4155 54.3221 35.6836 53.9439 35.8577 53.4751C36.0317 53.0064 36.1187 52.4986 36.1187 51.9517C36.1187 51.4048 36.0317 50.8952 35.8577 50.4229C35.6836 49.9506 35.4155 49.5689 35.0533 49.2777C34.6911 48.9865 34.2295 48.8409 33.6684 48.8409C33.1073 48.8409 32.6456 48.9865 32.2834 49.2777C31.9212 49.5689 31.6531 49.9506 31.4791 50.4229C31.3051 50.8952 31.2181 51.4048 31.2181 51.9517C31.2181 52.4986 31.3051 53.0064 31.4791 53.4751C31.6531 53.9439 31.9212 54.3221 32.2834 54.6097C32.6456 54.8974 33.1073 55.0412 33.6684 55.0412ZM46.9569 47.8182V48.8835H42.5464V47.8182H46.9569ZM43.8674 56V46.6889C43.8674 46.2202 43.9775 45.8295 44.1977 45.517C44.4179 45.2045 44.7037 44.9702 45.0553 44.8139C45.4069 44.6577 45.7779 44.5795 46.1686 44.5795C46.4775 44.5795 46.7297 44.6044 46.925 44.6541C47.1203 44.7038 47.2659 44.75 47.3618 44.7926L46.9995 45.8793C46.9356 45.858 46.8468 45.8313 46.7332 45.7994C46.6231 45.7674 46.4775 45.7514 46.2964 45.7514C45.8809 45.7514 45.5809 45.8562 45.3962 46.0657C45.2151 46.2752 45.1245 46.5824 45.1245 46.9872V56H43.8674ZM48.6187 56V47.8182H49.8758V56H48.6187ZM49.2579 46.4545C49.0129 46.4545 48.8016 46.3711 48.6241 46.2042C48.4501 46.0373 48.3631 45.8366 48.3631 45.6023C48.3631 45.3679 48.4501 45.1673 48.6241 45.0004C48.8016 44.8335 49.0129 44.75 49.2579 44.75C49.503 44.75 49.7125 44.8335 49.8865 45.0004C50.064 45.1673 50.1528 45.3679 50.1528 45.6023C50.1528 45.8366 50.064 46.0373 49.8865 46.2042C49.7125 46.3711 49.503 46.4545 49.2579 46.4545ZM53.3354 45.0909V56H52.0783V45.0909H53.3354ZM58.9683 56.1705C58.1799 56.1705 57.4999 55.9964 56.9281 55.6484C56.36 55.2969 55.9214 54.8068 55.6124 54.1783C55.3071 53.5462 55.1544 52.8111 55.1544 51.973C55.1544 51.1349 55.3071 50.3963 55.6124 49.7571C55.9214 49.1143 56.3511 48.6136 56.9015 48.255C57.4555 47.8928 58.1018 47.7116 58.8404 47.7116C59.2666 47.7116 59.6874 47.7827 60.1029 47.9247C60.5183 48.0668 60.8965 48.2976 61.2374 48.6172C61.5784 48.9332 61.85 49.3523 62.0524 49.8743C62.2548 50.3963 62.3561 51.0391 62.3561 51.8026V52.3352H56.0492V51.2486H61.0776C61.0776 50.7869 60.9853 50.375 60.8007 50.0128C60.6196 49.6506 60.3603 49.3647 60.023 49.1552C59.6892 48.9457 59.295 48.8409 58.8404 48.8409C58.3397 48.8409 57.9065 48.9652 57.5407 49.2138C57.1785 49.4588 56.8997 49.7784 56.7044 50.1726C56.5091 50.5668 56.4115 50.9893 56.4115 51.4403V52.1648C56.4115 52.7827 56.518 53.3065 56.7311 53.7362C56.9477 54.1623 57.2477 54.4872 57.6313 54.7109C58.0148 54.9311 58.4605 55.0412 58.9683 55.0412C59.2985 55.0412 59.5968 54.995 59.8632 54.9027C60.133 54.8068 60.3656 54.6648 60.561 54.4766C60.7563 54.2848 60.9072 54.0469 61.0137 53.7628L62.2282 54.1037C62.1004 54.5156 61.8855 54.8778 61.5837 55.1903C61.2818 55.4993 60.909 55.7408 60.4651 55.9148C60.0212 56.0852 59.5222 56.1705 58.9683 56.1705ZM71.611 56.1705C70.8439 56.1705 70.1834 55.9893 69.6294 55.6271C69.0754 55.2649 68.6493 54.766 68.351 54.1303C68.0527 53.4947 67.9036 52.7685 67.9036 51.9517C67.9036 51.1207 68.0563 50.3874 68.3617 49.7518C68.6706 49.1126 69.1003 48.6136 69.6507 48.255C70.2047 47.8928 70.851 47.7116 71.5896 47.7116C72.1649 47.7116 72.6834 47.8182 73.145 48.0312C73.6067 48.2443 73.9849 48.5426 74.2796 48.9261C74.5744 49.3097 74.7573 49.7571 74.8283 50.2685H73.5712C73.4753 49.8956 73.2622 49.5653 72.932 49.2777C72.6053 48.9865 72.1649 48.8409 71.611 48.8409C71.1209 48.8409 70.6912 48.9687 70.3219 49.2244C69.9561 49.4766 69.6703 49.8335 69.4643 50.2951C69.2619 50.7532 69.1607 51.2912 69.1607 51.9091C69.1607 52.5412 69.2601 53.0916 69.459 53.5604C69.6614 54.0291 69.9455 54.3931 70.3112 54.6523C70.6806 54.9116 71.1138 55.0412 71.611 55.0412C71.9377 55.0412 72.2342 54.9844 72.5005 54.8707C72.7669 54.7571 72.9923 54.5938 73.177 54.3807C73.3617 54.1676 73.4931 53.9119 73.5712 53.6136H74.8283C74.7573 54.0966 74.5815 54.5316 74.3009 54.9187C74.024 55.3022 73.6564 55.6076 73.1983 55.8349C72.7438 56.0586 72.2146 56.1705 71.611 56.1705ZM77.8231 51.0781V56H76.566V45.0909H77.8231V49.0966H77.9296C78.1214 48.674 78.409 48.3384 78.7926 48.0898C79.1796 47.8377 79.6945 47.7116 80.3373 47.7116C80.8948 47.7116 81.3831 47.8235 81.8021 48.0472C82.2212 48.2674 82.5461 48.6065 82.7769 49.0646C83.0113 49.5192 83.1285 50.098 83.1285 50.8011V56H81.8714V50.8864C81.8714 50.2365 81.7027 49.734 81.3654 49.3789C81.0316 49.0202 80.5681 48.8409 79.9751 48.8409C79.5632 48.8409 79.1938 48.9279 78.8671 49.1019C78.544 49.2759 78.2883 49.5298 78.1001 49.8636C77.9154 50.1974 77.8231 50.6023 77.8231 51.0781ZM88.6522 56.1705C87.9135 56.1705 87.2654 55.9947 86.7079 55.6431C86.1539 55.2915 85.7207 54.7997 85.4082 54.1676C85.0993 53.5355 84.9448 52.7969 84.9448 51.9517C84.9448 51.0994 85.0993 50.3555 85.4082 49.7198C85.7207 49.0842 86.1539 48.5906 86.7079 48.239C87.2654 47.8874 87.9135 47.7116 88.6522 47.7116C89.3908 47.7116 90.0371 47.8874 90.5911 48.239C91.1486 48.5906 91.5819 49.0842 91.8908 49.7198C92.2033 50.3555 92.3596 51.0994 92.3596 51.9517C92.3596 52.7969 92.2033 53.5355 91.8908 54.1676C91.5819 54.7997 91.1486 55.2915 90.5911 55.6431C90.0371 55.9947 89.3908 56.1705 88.6522 56.1705ZM88.6522 55.0412C89.2132 55.0412 89.6749 54.8974 90.0371 54.6097C90.3993 54.3221 90.6674 53.9439 90.8414 53.4751C91.0154 53.0064 91.1025 52.4986 91.1025 51.9517C91.1025 51.4048 91.0154 50.8952 90.8414 50.4229C90.6674 49.9506 90.3993 49.5689 90.0371 49.2777C89.6749 48.9865 89.2132 48.8409 88.6522 48.8409C88.0911 48.8409 87.6294 48.9865 87.2672 49.2777C86.905 49.5689 86.6369 49.9506 86.4629 50.4229C86.2889 50.8952 86.2019 51.4048 86.2019 51.9517C86.2019 52.4986 86.2889 53.0064 86.4629 53.4751C86.6369 53.9439 86.905 54.3221 87.2672 54.6097C87.6294 54.8974 88.0911 55.0412 88.6522 55.0412ZM99.974 49.6506L98.8447 49.9702C98.7737 49.782 98.6689 49.5991 98.5304 49.4215C98.3955 49.2404 98.2108 49.0913 97.9764 48.9741C97.7421 48.8569 97.442 48.7983 97.0762 48.7983C96.5755 48.7983 96.1583 48.9137 95.8245 49.1445C95.4942 49.3718 95.3291 49.6612 95.3291 50.0128C95.3291 50.3253 95.4427 50.5721 95.67 50.7532C95.8972 50.9343 96.2524 51.0852 96.7353 51.206L97.9498 51.5043C98.6813 51.6818 99.2264 51.9535 99.5851 52.3192C99.9438 52.6815 100.123 53.1484 100.123 53.7202C100.123 54.1889 99.9882 54.608 99.7183 54.9773C99.4519 55.3466 99.0791 55.6378 98.5997 55.8509C98.1203 56.0639 97.5627 56.1705 96.9271 56.1705C96.0926 56.1705 95.4019 55.9893 94.855 55.6271C94.3081 55.2649 93.9619 54.7358 93.8163 54.0398L95.0095 53.7415C95.1231 54.1818 95.3379 54.5121 95.654 54.7322C95.9736 54.9524 96.3909 55.0625 96.9058 55.0625C97.4917 55.0625 97.9569 54.9382 98.3014 54.6896C98.6494 54.4375 98.8234 54.1357 98.8234 53.7841C98.8234 53.5 98.724 53.2621 98.5251 53.0703C98.3262 52.875 98.0208 52.7294 97.6089 52.6335L96.2453 52.3139C95.496 52.1364 94.9455 51.8612 94.594 51.4883C94.246 51.1119 94.072 50.6413 94.072 50.0767C94.072 49.6151 94.2016 49.2067 94.4608 48.8516C94.7236 48.4964 95.0805 48.2177 95.5315 48.0153C95.986 47.8129 96.5009 47.7116 97.0762 47.7116C97.8859 47.7116 98.5215 47.8892 98.9832 48.2443C99.4484 48.5994 99.7786 49.0682 99.974 49.6506ZM105.346 56.1705C104.557 56.1705 103.877 55.9964 103.306 55.6484C102.738 55.2969 102.299 54.8068 101.99 54.1783C101.685 53.5462 101.532 52.8111 101.532 51.973C101.532 51.1349 101.685 50.3963 101.99 49.7571C102.299 49.1143 102.729 48.6136 103.279 48.255C103.833 47.8928 104.479 47.7116 105.218 47.7116C105.644 47.7116 106.065 47.7827 106.48 47.9247C106.896 48.0668 107.274 48.2976 107.615 48.6172C107.956 48.9332 108.228 49.3523 108.43 49.8743C108.632 50.3963 108.734 51.0391 108.734 51.8026V52.3352H102.427V51.2486H107.455C107.455 50.7869 107.363 50.375 107.178 50.0128C106.997 49.6506 106.738 49.3647 106.401 49.1552C106.067 48.9457 105.673 48.8409 105.218 48.8409C104.717 48.8409 104.284 48.9652 103.918 49.2138C103.556 49.4588 103.277 49.7784 103.082 50.1726C102.887 50.5668 102.789 50.9893 102.789 51.4403V52.1648C102.789 52.7827 102.896 53.3065 103.109 53.7362C103.325 54.1623 103.625 54.4872 104.009 54.7109C104.392 54.9311 104.838 55.0412 105.346 55.0412C105.676 55.0412 105.974 54.995 106.241 54.9027C106.511 54.8068 106.743 54.6648 106.938 54.4766C107.134 54.2848 107.285 54.0469 107.391 53.7628L108.606 54.1037C108.478 54.5156 108.263 54.8778 107.961 55.1903C107.659 55.4993 107.287 55.7408 106.843 55.9148C106.399 56.0852 105.9 56.1705 105.346 56.1705ZM111.803 51.0781V56H110.546V47.8182H111.76V49.0966H111.867C112.059 48.6811 112.35 48.3473 112.74 48.0952C113.131 47.8395 113.635 47.7116 114.253 47.7116C114.807 47.7116 115.292 47.8253 115.707 48.0526C116.123 48.2763 116.446 48.6172 116.677 49.0753C116.908 49.5298 117.023 50.1051 117.023 50.8011V56H115.766V50.8864C115.766 50.2436 115.599 49.7429 115.265 49.3842C114.932 49.022 114.473 48.8409 113.891 48.8409C113.49 48.8409 113.131 48.9279 112.815 49.1019C112.503 49.2759 112.256 49.5298 112.075 49.8636C111.894 50.1974 111.803 50.6023 111.803 51.0781Z" fill="#919BA7"/>
<path d="M2.5 34C2.5 30.9624 4.96243 28.5 8 28.5H289.5V73.5H7.99999C4.96243 73.5 2.5 71.0376 2.5 68V34Z" stroke="#DAE0E6"/>
<mask id="path-5-inside-1_736_66294" fill="white">
<path d="M290 28H372C375.314 28 378 30.6863 378 34V68C378 71.3137 375.314 74 372 74H290V28Z"/>
</mask>
<path d="M290 28H372C375.314 28 378 30.6863 378 34V68C378 71.3137 375.314 74 372 74H290V28Z" fill="#F7F7F8"/>
<path d="M315.953 45.0909H317.929V52.218C317.929 52.9993 317.744 53.6864 317.375 54.2795C317.009 54.8725 316.494 55.3359 315.83 55.6697C315.166 56 314.39 56.1651 313.502 56.1651C312.611 56.1651 311.833 56 311.169 55.6697C310.505 55.3359 309.99 54.8725 309.625 54.2795C309.259 53.6864 309.076 52.9993 309.076 52.218V45.0909H311.052V52.0529C311.052 52.5075 311.152 52.9123 311.35 53.2674C311.553 53.6225 311.837 53.9013 312.203 54.1037C312.569 54.3026 313.002 54.402 313.502 54.402C314.003 54.402 314.436 54.3026 314.802 54.1037C315.172 53.9013 315.456 53.6225 315.654 53.2674C315.853 52.9123 315.953 52.5075 315.953 52.0529V45.0909ZM319.992 59.0682V47.8182H321.888V49.1712H322C322.099 48.9723 322.24 48.761 322.421 48.5373C322.602 48.31 322.847 48.1165 323.156 47.9567C323.465 47.7933 323.859 47.7116 324.338 47.7116C324.97 47.7116 325.54 47.8732 326.048 48.1964C326.56 48.516 326.964 48.9901 327.263 49.6186C327.565 50.2436 327.715 51.0107 327.715 51.9197C327.715 52.8182 327.568 53.5817 327.273 54.2102C326.979 54.8388 326.577 55.3182 326.07 55.6484C325.562 55.9787 324.986 56.1438 324.344 56.1438C323.875 56.1438 323.486 56.0657 323.177 55.9094C322.868 55.7532 322.62 55.565 322.431 55.3448C322.247 55.1211 322.103 54.9098 322 54.7109H321.92V59.0682H319.992ZM321.883 51.9091C321.883 52.4382 321.957 52.9016 322.106 53.2994C322.259 53.6971 322.478 54.0078 322.762 54.2315C323.049 54.4517 323.397 54.5618 323.806 54.5618C324.232 54.5618 324.589 54.4482 324.876 54.2209C325.164 53.9901 325.381 53.6758 325.526 53.2781C325.675 52.8768 325.75 52.4205 325.75 51.9091C325.75 51.4013 325.677 50.9503 325.532 50.5561C325.386 50.1619 325.169 49.853 324.882 49.6293C324.594 49.4055 324.235 49.2937 323.806 49.2937C323.394 49.2937 323.044 49.402 322.756 49.6186C322.469 49.8352 322.25 50.1388 322.101 50.5295C321.956 50.9201 321.883 51.38 321.883 51.9091ZM331.295 45.0909V56H329.367V45.0909H331.295ZM336.847 56.1598C336.048 56.1598 335.355 55.984 334.769 55.6325C334.183 55.2809 333.729 54.7891 333.406 54.157C333.086 53.5249 332.926 52.7862 332.926 51.9411C332.926 51.0959 333.086 50.3555 333.406 49.7198C333.729 49.0842 334.183 48.5906 334.769 48.239C335.355 47.8874 336.048 47.7116 336.847 47.7116C337.646 47.7116 338.338 47.8874 338.924 48.239C339.51 48.5906 339.963 49.0842 340.282 49.7198C340.606 50.3555 340.767 51.0959 340.767 51.9411C340.767 52.7862 340.606 53.5249 340.282 54.157C339.963 54.7891 339.51 55.2809 338.924 55.6325C338.338 55.984 337.646 56.1598 336.847 56.1598ZM336.857 54.6151C337.291 54.6151 337.653 54.4961 337.944 54.2582C338.235 54.0167 338.452 53.6935 338.594 53.2887C338.74 52.8839 338.812 52.4329 338.812 51.9357C338.812 51.435 338.74 50.9822 338.594 50.5774C338.452 50.169 338.235 49.8441 337.944 49.6026C337.653 49.3612 337.291 49.2404 336.857 49.2404C336.414 49.2404 336.044 49.3612 335.749 49.6026C335.458 49.8441 335.24 50.169 335.094 50.5774C334.952 50.9822 334.881 51.435 334.881 51.9357C334.881 52.4329 334.952 52.8839 335.094 53.2887C335.24 53.6935 335.458 54.0167 335.749 54.2582C336.044 54.4961 336.414 54.6151 336.857 54.6151ZM344.758 56.1651C344.24 56.1651 343.773 56.0728 343.357 55.8881C342.945 55.6999 342.619 55.4229 342.377 55.0572C342.139 54.6914 342.02 54.2404 342.02 53.7042C342.02 53.2425 342.106 52.8608 342.276 52.5589C342.446 52.2571 342.679 52.0156 342.974 51.8345C343.269 51.6534 343.601 51.5167 343.97 51.4244C344.343 51.3285 344.728 51.2592 345.126 51.2166C345.605 51.1669 345.994 51.1225 346.292 51.0835C346.591 51.0408 346.807 50.9769 346.942 50.8917C347.081 50.8029 347.15 50.6662 347.15 50.4815V50.4496C347.15 50.0483 347.031 49.7376 346.793 49.5174C346.555 49.2972 346.212 49.1871 345.765 49.1871C345.293 49.1871 344.918 49.2901 344.641 49.4961C344.368 49.7021 344.183 49.9453 344.087 50.2259L342.287 49.9702C342.429 49.473 342.663 49.0575 342.99 48.7237C343.316 48.3864 343.716 48.1342 344.188 47.9673C344.661 47.7969 345.183 47.7116 345.754 47.7116C346.149 47.7116 346.541 47.7578 346.932 47.8501C347.322 47.9425 347.679 48.0952 348.002 48.3082C348.325 48.5178 348.585 48.8036 348.78 49.1658C348.979 49.5281 349.078 49.9808 349.078 50.5241V56H347.225V54.8761H347.161C347.043 55.1033 346.878 55.3164 346.665 55.5153C346.456 55.7106 346.191 55.8686 345.872 55.9893C345.555 56.1065 345.184 56.1651 344.758 56.1651ZM345.259 54.7482C345.646 54.7482 345.982 54.6719 346.266 54.5192C346.55 54.3629 346.768 54.157 346.921 53.9013C347.077 53.6456 347.155 53.3668 347.155 53.065V52.1009C347.095 52.1506 346.992 52.1967 346.846 52.2393C346.704 52.282 346.544 52.3192 346.367 52.3512C346.189 52.3832 346.014 52.4116 345.84 52.4364C345.666 52.4613 345.515 52.4826 345.387 52.5004C345.099 52.5394 344.842 52.6033 344.614 52.6921C344.387 52.7809 344.208 52.9052 344.076 53.065C343.945 53.2212 343.879 53.4237 343.879 53.6722C343.879 54.0273 344.009 54.2955 344.268 54.4766C344.527 54.6577 344.858 54.7482 345.259 54.7482ZM354.053 56.1438C353.411 56.1438 352.835 55.9787 352.328 55.6484C351.82 55.3182 351.418 54.8388 351.124 54.2102C350.829 53.5817 350.682 52.8182 350.682 51.9197C350.682 51.0107 350.831 50.2436 351.129 49.6186C351.431 48.9901 351.837 48.516 352.349 48.1964C352.86 47.8732 353.43 47.7116 354.059 47.7116C354.538 47.7116 354.932 47.7933 355.241 47.9567C355.55 48.1165 355.795 48.31 355.976 48.5373C356.157 48.761 356.298 48.9723 356.397 49.1712H356.477V45.0909H358.411V56H356.514V54.7109H356.397C356.298 54.9098 356.154 55.1211 355.966 55.3448C355.777 55.565 355.529 55.7532 355.22 55.9094C354.911 56.0657 354.522 56.1438 354.053 56.1438ZM354.591 54.5618C355 54.5618 355.348 54.4517 355.635 54.2315C355.923 54.0078 356.141 53.6971 356.291 53.2994C356.44 52.9016 356.514 52.4382 356.514 51.9091C356.514 51.38 356.44 50.9201 356.291 50.5295C356.145 50.1388 355.928 49.8352 355.641 49.6186C355.357 49.402 355.007 49.2937 354.591 49.2937C354.162 49.2937 353.803 49.4055 353.515 49.6293C353.228 49.853 353.011 50.1619 352.866 50.5561C352.72 50.9503 352.647 51.4013 352.647 51.9091C352.647 52.4205 352.72 52.8768 352.866 53.2781C353.015 53.6758 353.233 53.9901 353.521 54.2209C353.812 54.4482 354.169 54.5618 354.591 54.5618Z" fill="#272D37"/>
<path d="M290 27H372C375.866 27 379 30.134 379 34H377C377 31.2386 374.761 29 372 29H290V27ZM379 68C379 71.866 375.866 75 372 75H290V73H372C374.761 73 377 70.7614 377 68H379ZM290 74V28V74ZM372 27C375.866 27 379 30.134 379 34V68C379 71.866 375.866 75 372 75V73C374.761 73 377 70.7614 377 68V34C377 31.2386 374.761 29 372 29V27Z" fill="#DAE0E6" mask="url(#path-5-inside-1_736_66294)"/>
</g>
</g>
<defs>
<filter id="filter0_d_736_66294" x="0" y="27" width="380" height="50" filterUnits="userSpaceOnUse" color-interpolation-filters="sRGB">
<feFlood flood-opacity="0" result="BackgroundImageFix"/>
<feColorMatrix in="SourceAlpha" type="matrix" values="0 0 0 0 0 0 0 0 0 0 0 0 0 0 0 0 0 0 127 0" result="hardAlpha"/>
<feOffset dy="1"/>
<feGaussianBlur stdDeviation="1"/>
<feComposite in2="hardAlpha" operator="out"/>
<feColorMatrix type="matrix" values="0 0 0 0 0.0627451 0 0 0 0 0.0941176 0 0 0 0 0.156863 0 0 0 0.04 0"/>
<feBlend mode="normal" in2="BackgroundImageFix" result="effect1_dropShadow_736_66294"/>
<feBlend mode="normal" in="SourceGraphic" in2="effect1_dropShadow_736_66294" result="shape"/>
</filter>
<clipPath id="clip0_736_66294">
<rect x="2" y="28" width="376" height="46" rx="6" fill="white"/>
</clipPath>
</defs>
</svg>
