<svg width="380" height="77" viewBox="0 0 380 77" fill="none" xmlns="http://www.w3.org/2000/svg">
<path d="M3.11861 15V4.81818H9.50213V6.14062H4.65483V9.2429H9.16903V10.5604H4.65483V13.6776H9.56179V15H3.11861ZM11.3348 15V7.36364H12.7617V8.60653H12.8561C13.0152 8.18561 13.2754 7.85748 13.6367 7.62216C13.998 7.38352 14.4305 7.2642 14.9343 7.2642C15.4447 7.2642 15.8722 7.38352 16.2169 7.62216C16.565 7.8608 16.8218 8.18892 16.9875 8.60653H17.0671C17.2494 8.19886 17.5394 7.87405 17.9371 7.6321C18.3348 7.38684 18.8088 7.2642 19.359 7.2642C20.0517 7.2642 20.6168 7.4813 21.0543 7.91548C21.4951 8.34967 21.7155 9.00426 21.7155 9.87926V15H20.229V10.0185C20.229 9.50142 20.0882 9.12689 19.8064 8.89489C19.5247 8.66288 19.1883 8.54688 18.7972 8.54688C18.3133 8.54688 17.9371 8.69602 17.6686 8.99432C17.4002 9.2893 17.2659 9.6688 17.2659 10.1328V15H15.7844V9.92401C15.7844 9.50971 15.6551 9.17661 15.3966 8.92472C15.1381 8.67282 14.8017 8.54688 14.3874 8.54688C14.1057 8.54688 13.8455 8.62145 13.6069 8.7706C13.3715 8.91643 13.181 9.12026 13.0351 9.3821C12.8926 9.64394 12.8213 9.94721 12.8213 10.2919V15H11.3348ZM25.8302 15.169C25.3463 15.169 24.9088 15.0795 24.5177 14.9006C24.1266 14.7183 23.8167 14.4548 23.588 14.1101C23.3626 13.7654 23.2499 13.3428 23.2499 12.8423C23.2499 12.4115 23.3328 12.0568 23.4985 11.7784C23.6642 11.5 23.8879 11.2796 24.1697 11.1172C24.4514 10.9548 24.7663 10.8321 25.1143 10.7493C25.4623 10.6664 25.8169 10.6035 26.1782 10.5604C26.6356 10.5073 27.0068 10.4643 27.2918 10.4311C27.5769 10.3946 27.784 10.3366 27.9133 10.2571C28.0425 10.1776 28.1072 10.0483 28.1072 9.86932V9.83452C28.1072 9.40033 27.9845 9.06392 27.7393 8.82528C27.4973 8.58665 27.1361 8.46733 26.6555 8.46733C26.155 8.46733 25.7606 8.57836 25.4722 8.80043C25.1872 9.01918 24.99 9.26278 24.8806 9.53125L23.4836 9.21307C23.6493 8.74905 23.8913 8.37453 24.2094 8.08949C24.5309 7.80114 24.9005 7.59233 25.3181 7.46307C25.7357 7.33049 26.1749 7.2642 26.6356 7.2642C26.9405 7.2642 27.2637 7.30066 27.605 7.37358C27.9497 7.44318 28.2712 7.57244 28.5695 7.76136C28.8711 7.95028 29.1181 8.22041 29.3103 8.57173C29.5025 8.91974 29.5986 9.37216 29.5986 9.92898V15H28.1469V13.956H28.0873C27.9912 14.1482 27.847 14.3371 27.6548 14.5227C27.4625 14.7083 27.2156 14.8625 26.914 14.9851C26.6124 15.1077 26.2511 15.169 25.8302 15.169ZM26.1533 13.9759C26.5643 13.9759 26.9156 13.8946 27.2073 13.7322C27.5023 13.5698 27.726 13.3577 27.8785 13.0959C28.0343 12.8307 28.1121 12.5473 28.1121 12.2457V11.2614C28.0591 11.3144 27.9564 11.3641 27.8039 11.4105C27.6548 11.4536 27.4841 11.4917 27.2918 11.5249C27.0996 11.5547 26.9123 11.5829 26.73 11.6094C26.5478 11.6326 26.3953 11.6525 26.2727 11.669C25.9843 11.7055 25.7208 11.7668 25.4822 11.853C25.2469 11.9392 25.0579 12.0634 24.9154 12.2259C24.7762 12.3849 24.7066 12.5971 24.7066 12.8622C24.7066 13.2301 24.8425 13.5085 25.1143 13.6974C25.3861 13.883 25.7324 13.9759 26.1533 13.9759ZM31.4786 15V7.36364H32.9651V15H31.4786ZM32.2293 6.18537C31.9708 6.18537 31.7487 6.09919 31.5631 5.92685C31.3808 5.75118 31.2897 5.54238 31.2897 5.30043C31.2897 5.05516 31.3808 4.84635 31.5631 4.67401C31.7487 4.49834 31.9708 4.41051 32.2293 4.41051C32.4878 4.41051 32.7082 4.49834 32.8905 4.67401C33.0761 4.84635 33.1689 5.05516 33.1689 5.30043C33.1689 5.54238 33.0761 5.75118 32.8905 5.92685C32.7082 6.09919 32.4878 6.18537 32.2293 6.18537ZM36.3514 4.81818V15H34.8649V4.81818H36.3514Z" fill="#272D37"/>
<g filter="url(#filter0_d_736_66286)">
<rect x="2" y="28" width="376" height="46" rx="6" fill="white"/>
<path d="M20.642 45.0909V56H19.321V45.0909H20.642ZM24.2774 51.0781V56H23.0203V47.8182H24.2348V49.0966H24.3413C24.5331 48.6811 24.8243 48.3473 25.2149 48.0952C25.6055 47.8395 26.1098 47.7116 26.7277 47.7116C27.2817 47.7116 27.7664 47.8253 28.1819 48.0526C28.5974 48.2763 28.9205 48.6172 29.1513 49.0753C29.3822 49.5298 29.4976 50.1051 29.4976 50.8011V56H28.2405V50.8864C28.2405 50.2436 28.0736 49.7429 27.7398 49.3842C27.4059 49.022 26.9479 48.8409 26.3655 48.8409C25.9642 48.8409 25.6055 48.9279 25.2895 49.1019C24.977 49.2759 24.7302 49.5298 24.5491 49.8636C24.368 50.1974 24.2774 50.6023 24.2774 51.0781ZM31.6947 59.0682V47.8182H32.9092V49.1179H33.0583C33.1507 48.9759 33.2785 48.7947 33.4419 48.5746C33.6088 48.3509 33.8467 48.152 34.1556 47.978C34.4681 47.8004 34.8907 47.7116 35.4234 47.7116C36.1123 47.7116 36.7196 47.8839 37.2451 48.2283C37.7707 48.5728 38.1809 49.0611 38.4756 49.6932C38.7703 50.3253 38.9177 51.071 38.9177 51.9304C38.9177 52.7969 38.7703 53.5479 38.4756 54.1836C38.1809 54.8157 37.7725 55.3058 37.2505 55.6538C36.7284 55.9982 36.1265 56.1705 35.4447 56.1705C34.9191 56.1705 34.4983 56.0835 34.1823 55.9094C33.8662 55.7319 33.623 55.5312 33.4525 55.3075C33.2821 55.0803 33.1507 54.892 33.0583 54.7429H32.9518V59.0682H31.6947ZM32.9305 51.9091C32.9305 52.527 33.0211 53.0721 33.2022 53.5444C33.3833 54.0131 33.6478 54.3807 33.9958 54.647C34.3439 54.9098 34.77 55.0412 35.2743 55.0412C35.7998 55.0412 36.2384 54.9027 36.59 54.6257C36.9451 54.3452 37.2114 53.9687 37.389 53.4964C37.5701 53.0206 37.6606 52.4915 37.6606 51.9091C37.6606 51.3338 37.5718 50.8153 37.3943 50.3537C37.2203 49.8885 36.9557 49.521 36.6006 49.2511C36.249 48.9776 35.8069 48.8409 35.2743 48.8409C34.7629 48.8409 34.3332 48.9705 33.9852 49.2298C33.6372 49.4854 33.3744 49.8441 33.1968 50.3058C33.0193 50.7638 32.9305 51.2983 32.9305 51.9091ZM45.8916 52.6548V47.8182H47.1487V56H45.8916V54.6151H45.8064C45.6146 55.0305 45.3163 55.3839 44.9115 55.6751C44.5066 55.9627 43.9953 56.1065 43.3774 56.1065C42.866 56.1065 42.4115 55.9947 42.0137 55.771C41.616 55.5437 41.3035 55.2028 41.0762 54.7482C40.849 54.2901 40.7353 53.7131 40.7353 53.017V47.8182H41.9924V52.9318C41.9924 53.5284 42.1593 54.0043 42.4931 54.3594C42.8305 54.7145 43.2602 54.892 43.7822 54.892C44.0947 54.892 44.4125 54.8121 44.7357 54.6523C45.0624 54.4925 45.3358 54.2475 45.556 53.9173C45.7797 53.587 45.8916 53.1662 45.8916 52.6548ZM52.9094 47.8182V48.8835H48.6693V47.8182H52.9094ZM49.9051 45.858H51.1622V53.6562C51.1622 54.0114 51.2137 54.2777 51.3167 54.4553C51.4232 54.6293 51.5582 54.7464 51.7215 54.8068C51.8884 54.8636 52.0642 54.892 52.2489 54.892C52.3874 54.892 52.501 54.8849 52.5898 54.8707C52.6786 54.853 52.7496 54.8388 52.8029 54.8281L53.0585 55.9574C52.9733 55.9893 52.8544 56.0213 52.7017 56.0533C52.549 56.0888 52.3554 56.1065 52.121 56.1065C51.7659 56.1065 51.4179 56.0302 51.077 55.8775C50.7396 55.7248 50.4591 55.4922 50.2354 55.1797C50.0152 54.8672 49.9051 54.473 49.9051 53.9972V45.858Z" fill="#919BA7"/>
<rect x="2.5" y="28.5" width="375" height="45" rx="5.5" stroke="#DAE0E6"/>
</g>
<defs>
<filter id="filter0_d_736_66286" x="0" y="27" width="380" height="50" filterUnits="userSpaceOnUse" color-interpolation-filters="sRGB">
<feFlood flood-opacity="0" result="BackgroundImageFix"/>
<feColorMatrix in="SourceAlpha" type="matrix" values="0 0 0 0 0 0 0 0 0 0 0 0 0 0 0 0 0 0 127 0" result="hardAlpha"/>
<feOffset dy="1"/>
<feGaussianBlur stdDeviation="1"/>
<feComposite in2="hardAlpha" operator="out"/>
<feColorMatrix type="matrix" values="0 0 0 0 0.0627451 0 0 0 0 0.0941176 0 0 0 0 0.156863 0 0 0 0.04 0"/>
<feBlend mode="normal" in2="BackgroundImageFix" result="effect1_dropShadow_736_66286"/>
<feBlend mode="normal" in="SourceGraphic" in2="effect1_dropShadow_736_66286" result="shape"/>
</filter>
</defs>
</svg>
