<svg width="780" height="176" viewBox="0 0 780 176" fill="none" xmlns="http://www.w3.org/2000/svg">
<path d="M2.61648 6.14062V4.81818H10.4964V6.14062H7.3196V15H5.78835V6.14062H2.61648ZM14.2022 15.1541C13.4498 15.1541 12.8019 14.9934 12.2583 14.6719C11.7181 14.3471 11.3004 13.8913 11.0055 13.3047C10.7138 12.7147 10.568 12.0237 10.568 11.2315C10.568 10.4493 10.7138 9.75994 11.0055 9.16335C11.3004 8.56676 11.7114 8.10109 12.2384 7.76633C12.7687 7.43158 13.3885 7.2642 14.0978 7.2642C14.5287 7.2642 14.9463 7.33546 15.3506 7.47798C15.755 7.6205 16.1179 7.84422 16.4394 8.14915C16.7609 8.45407 17.0145 8.85014 17.2001 9.33736C17.3857 9.82126 17.4785 10.4096 17.4785 11.1023V11.6293H11.4082V10.5156H16.0218C16.0218 10.1245 15.9423 9.77817 15.7832 9.47656C15.6241 9.17164 15.4004 8.93134 15.112 8.75568C14.827 8.58002 14.4922 8.49219 14.1077 8.49219C13.6901 8.49219 13.3255 8.59493 13.014 8.80043C12.7058 9.0026 12.4671 9.26776 12.2981 9.59588C12.1324 9.92069 12.0495 10.2737 12.0495 10.6548V11.5249C12.0495 12.0353 12.139 12.4695 12.318 12.8274C12.5003 13.1854 12.7538 13.4588 13.0786 13.6477C13.4034 13.8333 13.7829 13.9261 14.2171 13.9261C14.4988 13.9261 14.7557 13.8864 14.9877 13.8068C15.2197 13.724 15.4202 13.6013 15.5893 13.4389C15.7583 13.2765 15.8876 13.076 15.9771 12.8374L17.384 13.0909C17.2713 13.5052 17.0692 13.8681 16.7775 14.1797C16.4891 14.4879 16.1262 14.7282 15.6887 14.9006C15.2545 15.0696 14.759 15.1541 14.2022 15.1541ZM20.5143 4.81818V15H19.0278V4.81818H20.5143ZM23.9006 4.81818V15H22.4141V4.81818H23.9006ZM34.2429 11.8331V7.36364H35.7344V15H34.2727V13.6776H34.1932C34.0175 14.0852 33.7358 14.425 33.348 14.6967C32.9635 14.9652 32.4846 15.0994 31.9112 15.0994C31.4207 15.0994 30.9865 14.9917 30.6087 14.7763C30.2341 14.5575 29.9392 14.2344 29.7237 13.8068C29.5116 13.3793 29.4055 12.8506 29.4055 12.2209V7.36364H30.892V12.0419C30.892 12.5623 31.0362 12.9766 31.3246 13.2848C31.6129 13.593 31.9875 13.7472 32.4482 13.7472C32.7266 13.7472 33.0033 13.6776 33.2784 13.5384C33.5568 13.3991 33.7872 13.1887 33.9695 12.907C34.1551 12.6252 34.2462 12.2673 34.2429 11.8331ZM43.354 9.22798L42.0067 9.46662C41.9504 9.29427 41.8609 9.13021 41.7382 8.97443C41.6189 8.81865 41.4565 8.69105 41.251 8.59162C41.0455 8.49219 40.7887 8.44247 40.4804 8.44247C40.0595 8.44247 39.7082 8.53693 39.4265 8.72585C39.1447 8.91146 39.0039 9.15175 39.0039 9.44673C39.0039 9.70194 39.0983 9.90743 39.2873 10.0632C39.4762 10.219 39.7811 10.3466 40.202 10.446L41.4151 10.7244C42.1177 10.8868 42.6414 11.1371 42.9861 11.4751C43.3308 11.8132 43.5032 12.2524 43.5032 12.7926C43.5032 13.25 43.3706 13.6577 43.1054 14.0156C42.8436 14.3703 42.4774 14.6487 42.0067 14.8509C41.5394 15.053 40.9975 15.1541 40.381 15.1541C39.5259 15.1541 38.8282 14.9718 38.288 14.6072C37.7477 14.2393 37.4163 13.7173 37.2936 13.0412L38.7304 12.8224C38.8199 13.197 39.0039 13.4804 39.2823 13.6726C39.5607 13.8615 39.9236 13.956 40.3711 13.956C40.8583 13.956 41.2477 13.8549 41.5394 13.6527C41.8311 13.4472 41.9769 13.197 41.9769 12.902C41.9769 12.6634 41.8874 12.4628 41.7084 12.3004C41.5328 12.138 41.2626 12.0154 40.898 11.9325L39.6054 11.6491C38.8928 11.4867 38.3659 11.2282 38.0245 10.8736C37.6864 10.5189 37.5174 10.0698 37.5174 9.52628C37.5174 9.07552 37.6433 8.68111 37.8952 8.34304C38.1471 8.00497 38.4951 7.74148 38.9392 7.55256C39.3834 7.36032 39.8921 7.2642 40.4655 7.2642C41.2908 7.2642 41.9404 7.44318 42.4144 7.80114C42.8883 8.15578 43.2016 8.63139 43.354 9.22798ZM48.6426 15V7.36364H50.0695V8.60653H50.164C50.323 8.18561 50.5832 7.85748 50.9445 7.62216C51.3058 7.38352 51.7383 7.2642 52.2421 7.2642C52.7525 7.2642 53.1801 7.38352 53.5248 7.62216C53.8728 7.8608 54.1296 8.18892 54.2953 8.60653H54.3749C54.5572 8.19886 54.8472 7.87405 55.2449 7.6321C55.6426 7.38684 56.1166 7.2642 56.6668 7.2642C57.3595 7.2642 57.9246 7.4813 58.3621 7.91548C58.8029 8.34967 59.0233 9.00426 59.0233 9.87926V15H57.5368V10.0185C57.5368 9.50142 57.396 9.12689 57.1142 8.89489C56.8325 8.66288 56.4961 8.54688 56.105 8.54688C55.6211 8.54688 55.2449 8.69602 54.9765 8.99432C54.708 9.2893 54.5738 9.6688 54.5738 10.1328V15H53.0922V9.92401C53.0922 9.50971 52.963 9.17661 52.7044 8.92472C52.4459 8.67282 52.1095 8.54688 51.6952 8.54688C51.4135 8.54688 51.1533 8.62145 50.9147 8.7706C50.6793 8.91643 50.4888 9.12026 50.3429 9.3821C50.2004 9.64394 50.1292 9.94721 50.1292 10.2919V15H48.6426ZM64.1323 15.1541C63.4164 15.1541 62.7916 14.9901 62.258 14.6619C61.7244 14.3338 61.3101 13.8748 61.0151 13.2848C60.7201 12.6948 60.5727 12.0054 60.5727 11.2166C60.5727 10.4245 60.7201 9.73177 61.0151 9.13849C61.3101 8.54522 61.7244 8.08452 62.258 7.75639C62.7916 7.42827 63.4164 7.2642 64.1323 7.2642C64.8482 7.2642 65.473 7.42827 66.0066 7.75639C66.5402 8.08452 66.9545 8.54522 67.2495 9.13849C67.5445 9.73177 67.692 10.4245 67.692 11.2166C67.692 12.0054 67.5445 12.6948 67.2495 13.2848C66.9545 13.8748 66.5402 14.3338 66.0066 14.6619C65.473 14.9901 64.8482 15.1541 64.1323 15.1541ZM64.1373 13.9062C64.6013 13.9062 64.9858 13.7836 65.2907 13.5384C65.5956 13.2931 65.821 12.9666 65.9668 12.5589C66.116 12.1513 66.1906 11.7022 66.1906 11.2116C66.1906 10.7244 66.116 10.277 65.9668 9.86932C65.821 9.45833 65.5956 9.12855 65.2907 8.87997C64.9858 8.63139 64.6013 8.5071 64.1373 8.5071C63.67 8.5071 63.2822 8.63139 62.9739 8.87997C62.669 9.12855 62.442 9.45833 62.2928 9.86932C62.147 10.277 62.0741 10.7244 62.0741 11.2116C62.0741 11.7022 62.147 12.1513 62.2928 12.5589C62.442 12.9666 62.669 13.2931 62.9739 13.5384C63.2822 13.7836 63.67 13.9062 64.1373 13.9062ZM69.2512 15V7.36364H70.688V8.5767H70.7676C70.9068 8.16572 71.152 7.84257 71.5034 7.60724C71.858 7.36861 72.2591 7.24929 72.7065 7.24929C72.7993 7.24929 72.9087 7.2526 73.0346 7.25923C73.1639 7.26586 73.265 7.27415 73.3379 7.28409V8.70597C73.2782 8.68939 73.1722 8.67116 73.0197 8.65128C72.8672 8.62808 72.7148 8.61648 72.5623 8.61648C72.211 8.61648 71.8978 8.69105 71.6227 8.8402C71.3509 8.98603 71.1355 9.18987 70.9764 9.4517C70.8173 9.71023 70.7377 10.0052 70.7377 10.3366V15H69.2512ZM77.542 15.1541C76.7897 15.1541 76.1417 14.9934 75.5982 14.6719C75.0579 14.3471 74.6403 13.8913 74.3453 13.3047C74.0536 12.7147 73.9078 12.0237 73.9078 11.2315C73.9078 10.4493 74.0536 9.75994 74.3453 9.16335C74.6403 8.56676 75.0513 8.10109 75.5783 7.76633C76.1086 7.43158 76.7284 7.2642 77.4376 7.2642C77.8685 7.2642 78.2861 7.33546 78.6905 7.47798C79.0948 7.6205 79.4578 7.84422 79.7793 8.14915C80.1008 8.45407 80.3543 8.85014 80.5399 9.33736C80.7255 9.82126 80.8183 10.4096 80.8183 11.1023V11.6293H74.748V10.5156H79.3616C79.3616 10.1245 79.2821 9.77817 79.123 9.47656C78.9639 9.17164 78.7402 8.93134 78.4518 8.75568C78.1668 8.58002 77.8321 8.49219 77.4476 8.49219C77.03 8.49219 76.6654 8.59493 76.3538 8.80043C76.0456 9.0026 75.807 9.26776 75.6379 9.59588C75.4722 9.92069 75.3893 10.2737 75.3893 10.6548V11.5249C75.3893 12.0353 75.4788 12.4695 75.6578 12.8274C75.8401 13.1854 76.0937 13.4588 76.4185 13.6477C76.7433 13.8333 77.1228 13.9261 77.557 13.9261C77.8387 13.9261 78.0956 13.8864 78.3276 13.8068C78.5596 13.724 78.7601 13.6013 78.9291 13.4389C79.0982 13.2765 79.2274 13.076 79.3169 12.8374L80.7239 13.0909C80.6112 13.5052 80.409 13.8681 80.1173 14.1797C79.829 14.4879 79.4661 14.7282 79.0286 14.9006C78.5944 15.0696 78.0989 15.1541 77.542 15.1541ZM88.195 15.169C87.7111 15.169 87.2736 15.0795 86.8825 14.9006C86.4914 14.7183 86.1815 14.4548 85.9528 14.1101C85.7275 13.7654 85.6148 13.3428 85.6148 12.8423C85.6148 12.4115 85.6976 12.0568 85.8633 11.7784C86.0291 11.5 86.2528 11.2796 86.5345 11.1172C86.8162 10.9548 87.1311 10.8321 87.4791 10.7493C87.8271 10.6664 88.1818 10.6035 88.543 10.5604C89.0004 10.5073 89.3716 10.4643 89.6567 10.4311C89.9417 10.3946 90.1489 10.3366 90.2781 10.2571C90.4074 10.1776 90.472 10.0483 90.472 9.86932V9.83452C90.472 9.40033 90.3494 9.06392 90.1041 8.82528C89.8622 8.58665 89.5009 8.46733 89.0203 8.46733C88.5198 8.46733 88.1254 8.57836 87.8371 8.80043C87.552 9.01918 87.3548 9.26278 87.2455 9.53125L85.8484 9.21307C86.0142 8.74905 86.2561 8.37453 86.5743 8.08949C86.8958 7.80114 87.2653 7.59233 87.683 7.46307C88.1006 7.33049 88.5397 7.2642 89.0004 7.2642C89.3053 7.2642 89.6285 7.30066 89.9699 7.37358C90.3146 7.44318 90.6361 7.57244 90.9344 7.76136C91.236 7.95028 91.4829 8.22041 91.6751 8.57173C91.8674 8.91974 91.9635 9.37216 91.9635 9.92898V15H90.5118V13.956H90.4521C90.356 14.1482 90.2118 14.3371 90.0196 14.5227C89.8274 14.7083 89.5804 14.8625 89.2788 14.9851C88.9772 15.1077 88.616 15.169 88.195 15.169ZM88.5182 13.9759C88.9292 13.9759 89.2805 13.8946 89.5722 13.7322C89.8671 13.5698 90.0909 13.3577 90.2433 13.0959C90.3991 12.8307 90.477 12.5473 90.477 12.2457V11.2614C90.424 11.3144 90.3212 11.3641 90.1687 11.4105C90.0196 11.4536 89.8489 11.4917 89.6567 11.5249C89.4644 11.5547 89.2772 11.5829 89.0949 11.6094C88.9126 11.6326 88.7601 11.6525 88.6375 11.669C88.3491 11.7055 88.0857 11.7668 87.847 11.853C87.6117 11.9392 87.4228 12.0634 87.2803 12.2259C87.141 12.3849 87.0714 12.5971 87.0714 12.8622C87.0714 13.2301 87.2073 13.5085 87.4791 13.6974C87.7509 13.883 88.0973 13.9759 88.5182 13.9759ZM93.9627 15V4.81818H95.4493V8.60156H95.5387C95.6249 8.44247 95.7492 8.25852 95.9116 8.04972C96.074 7.84091 96.2994 7.65862 96.5877 7.50284C96.8761 7.34375 97.2573 7.2642 97.7312 7.2642C98.3477 7.2642 98.8979 7.41998 99.3818 7.73153C99.8657 8.04309 100.245 8.49219 100.52 9.07884C100.799 9.66548 100.938 10.3714 100.938 11.1967C100.938 12.022 100.8 12.7296 100.525 13.3196C100.25 13.9062 99.8723 14.3587 99.3917 14.6768C98.9111 14.9917 98.3626 15.1491 97.7461 15.1491C97.2821 15.1491 96.9026 15.0713 96.6076 14.9155C96.316 14.7597 96.0873 14.5774 95.9216 14.3686C95.7558 14.1598 95.6282 13.9742 95.5387 13.8118H95.4145V15H93.9627ZM95.4194 11.1818C95.4194 11.7187 95.4973 12.1894 95.6531 12.5938C95.8089 12.9981 96.0342 13.3146 96.3292 13.5433C96.6242 13.7687 96.9855 13.8814 97.413 13.8814C97.8572 13.8814 98.2284 13.7637 98.5267 13.5284C98.825 13.2898 99.0503 12.9666 99.2028 12.5589C99.3586 12.1513 99.4365 11.6922 99.4365 11.1818C99.4365 10.678 99.3602 10.2256 99.2078 9.82457C99.0586 9.42353 98.8332 9.10701 98.5316 8.875C98.2333 8.64299 97.8605 8.52699 97.413 8.52699C96.9822 8.52699 96.6176 8.63802 96.3193 8.86009C96.0243 9.08215 95.8006 9.39205 95.6481 9.78977C95.4957 10.1875 95.4194 10.6515 95.4194 11.1818ZM105.724 15.1541C105.008 15.1541 104.383 14.9901 103.849 14.6619C103.316 14.3338 102.902 13.8748 102.607 13.2848C102.312 12.6948 102.164 12.0054 102.164 11.2166C102.164 10.4245 102.312 9.73177 102.607 9.13849C102.902 8.54522 103.316 8.08452 103.849 7.75639C104.383 7.42827 105.008 7.2642 105.724 7.2642C106.44 7.2642 107.064 7.42827 107.598 7.75639C108.132 8.08452 108.546 8.54522 108.841 9.13849C109.136 9.73177 109.283 10.4245 109.283 11.2166C109.283 12.0054 109.136 12.6948 108.841 13.2848C108.546 13.8748 108.132 14.3338 107.598 14.6619C107.064 14.9901 106.44 15.1541 105.724 15.1541ZM105.729 13.9062C106.193 13.9062 106.577 13.7836 106.882 13.5384C107.187 13.2931 107.412 12.9666 107.558 12.5589C107.707 12.1513 107.782 11.7022 107.782 11.2116C107.782 10.7244 107.707 10.277 107.558 9.86932C107.412 9.45833 107.187 9.12855 106.882 8.87997C106.577 8.63139 106.193 8.5071 105.729 8.5071C105.261 8.5071 104.874 8.63139 104.565 8.87997C104.26 9.12855 104.033 9.45833 103.884 9.86932C103.738 10.277 103.665 10.7244 103.665 11.2116C103.665 11.7022 103.738 12.1513 103.884 12.5589C104.033 12.9666 104.26 13.2931 104.565 13.5384C104.874 13.7836 105.261 13.9062 105.729 13.9062ZM115.68 11.8331V7.36364H117.171V15H115.71V13.6776H115.63C115.455 14.0852 115.173 14.425 114.785 14.6967C114.401 14.9652 113.922 15.0994 113.348 15.0994C112.858 15.0994 112.424 14.9917 112.046 14.7763C111.671 14.5575 111.376 14.2344 111.161 13.8068C110.949 13.3793 110.843 12.8506 110.843 12.2209V7.36364H112.329V12.0419C112.329 12.5623 112.473 12.9766 112.762 13.2848C113.05 13.593 113.425 13.7472 113.885 13.7472C114.164 13.7472 114.44 13.6776 114.716 13.5384C114.994 13.3991 115.224 13.1887 115.407 12.907C115.592 12.6252 115.683 12.2673 115.68 11.8331ZM122.633 7.36364V8.55682H118.462V7.36364H122.633ZM119.581 5.53409H121.067V12.7578C121.067 13.0462 121.11 13.2633 121.197 13.4091C121.283 13.5516 121.394 13.6494 121.53 13.7024C121.669 13.7521 121.82 13.777 121.982 13.777C122.101 13.777 122.206 13.7687 122.295 13.7521C122.385 13.7356 122.454 13.7223 122.504 13.7124L122.773 14.9403C122.686 14.9735 122.564 15.0066 122.405 15.0398C122.246 15.0762 122.047 15.0961 121.808 15.0994C121.417 15.1061 121.052 15.0365 120.714 14.8906C120.376 14.7448 120.103 14.5194 119.894 14.2145C119.685 13.9096 119.581 13.5268 119.581 13.0661V5.53409ZM128.723 17.8636C128.5 17.8636 128.298 17.8454 128.116 17.8089C127.934 17.7758 127.798 17.7393 127.708 17.6996L128.066 16.4815C128.338 16.5545 128.58 16.5859 128.792 16.576C129.004 16.5661 129.191 16.4865 129.354 16.3374C129.52 16.1882 129.665 15.9446 129.791 15.6065L129.975 15.0994L127.181 7.36364H128.772L130.706 13.2898H130.786L132.72 7.36364H134.316L131.169 16.0192C131.023 16.4169 130.837 16.7533 130.612 17.0284C130.386 17.3068 130.118 17.5156 129.806 17.6548C129.495 17.794 129.133 17.8636 128.723 17.8636ZM138.569 15.1541C137.854 15.1541 137.229 14.9901 136.695 14.6619C136.162 14.3338 135.747 13.8748 135.452 13.2848C135.157 12.6948 135.01 12.0054 135.01 11.2166C135.01 10.4245 135.157 9.73177 135.452 9.13849C135.747 8.54522 136.162 8.08452 136.695 7.75639C137.229 7.42827 137.854 7.2642 138.569 7.2642C139.285 7.2642 139.91 7.42827 140.444 7.75639C140.977 8.08452 141.392 8.54522 141.687 9.13849C141.982 9.73177 142.129 10.4245 142.129 11.2166C142.129 12.0054 141.982 12.6948 141.687 13.2848C141.392 13.8748 140.977 14.3338 140.444 14.6619C139.91 14.9901 139.285 15.1541 138.569 15.1541ZM138.574 13.9062C139.038 13.9062 139.423 13.7836 139.728 13.5384C140.033 13.2931 140.258 12.9666 140.404 12.5589C140.553 12.1513 140.628 11.7022 140.628 11.2116C140.628 10.7244 140.553 10.277 140.404 9.86932C140.258 9.45833 140.033 9.12855 139.728 8.87997C139.423 8.63139 139.038 8.5071 138.574 8.5071C138.107 8.5071 137.719 8.63139 137.411 8.87997C137.106 9.12855 136.879 9.45833 136.73 9.86932C136.584 10.277 136.511 10.7244 136.511 11.2116C136.511 11.7022 136.584 12.1513 136.73 12.5589C136.879 12.9666 137.106 13.2931 137.411 13.5384C137.719 13.7836 138.107 13.9062 138.574 13.9062ZM148.526 11.8331V7.36364H150.017V15H148.556V13.6776H148.476C148.3 14.0852 148.019 14.425 147.631 14.6967C147.246 14.9652 146.767 15.0994 146.194 15.0994C145.703 15.0994 145.269 14.9917 144.891 14.7763C144.517 14.5575 144.222 14.2344 144.007 13.8068C143.794 13.3793 143.688 12.8506 143.688 12.2209V7.36364H145.175V12.0419C145.175 12.5623 145.319 12.9766 145.607 13.2848C145.896 13.593 146.27 13.7472 146.731 13.7472C147.009 13.7472 147.286 13.6776 147.561 13.5384C147.84 13.3991 148.07 13.1887 148.252 12.907C148.438 12.6252 148.529 12.2673 148.526 11.8331ZM151.915 15V7.36364H153.351V8.5767H153.431C153.57 8.16572 153.815 7.84257 154.167 7.60724C154.521 7.36861 154.922 7.24929 155.37 7.24929C155.463 7.24929 155.572 7.2526 155.698 7.25923C155.827 7.26586 155.928 7.27415 156.001 7.28409V8.70597C155.942 8.68939 155.835 8.67116 155.683 8.65128C155.531 8.62808 155.378 8.61648 155.226 8.61648C154.874 8.61648 154.561 8.69105 154.286 8.8402C154.014 8.98603 153.799 9.18987 153.64 9.4517C153.481 9.71023 153.401 10.0052 153.401 10.3366V15H151.915ZM162.91 9.22798L161.563 9.46662C161.506 9.29427 161.417 9.13021 161.294 8.97443C161.175 8.81865 161.012 8.69105 160.807 8.59162C160.601 8.49219 160.345 8.44247 160.036 8.44247C159.615 8.44247 159.264 8.53693 158.982 8.72585C158.701 8.91146 158.56 9.15175 158.56 9.44673C158.56 9.70194 158.654 9.90743 158.843 10.0632C159.032 10.219 159.337 10.3466 159.758 10.446L160.971 10.7244C161.674 10.8868 162.197 11.1371 162.542 11.4751C162.887 11.8132 163.059 12.2524 163.059 12.7926C163.059 13.25 162.926 13.6577 162.661 14.0156C162.399 14.3703 162.033 14.6487 161.563 14.8509C161.095 15.053 160.553 15.1541 159.937 15.1541C159.082 15.1541 158.384 14.9718 157.844 14.6072C157.304 14.2393 156.972 13.7173 156.849 13.0412L158.286 12.8224C158.376 13.197 158.56 13.4804 158.838 13.6726C159.117 13.8615 159.479 13.956 159.927 13.956C160.414 13.956 160.804 13.8549 161.095 13.6527C161.387 13.4472 161.533 13.197 161.533 12.902C161.533 12.6634 161.443 12.4628 161.264 12.3004C161.089 12.138 160.818 12.0154 160.454 11.9325L159.161 11.6491C158.449 11.4867 157.922 11.2282 157.58 10.8736C157.242 10.5189 157.073 10.0698 157.073 9.52628C157.073 9.07552 157.199 8.68111 157.451 8.34304C157.703 8.00497 158.051 7.74148 158.495 7.55256C158.939 7.36032 159.448 7.2642 160.021 7.2642C160.847 7.2642 161.496 7.44318 161.97 7.80114C162.444 8.15578 162.757 8.63139 162.91 9.22798ZM167.885 15.1541C167.132 15.1541 166.484 14.9934 165.941 14.6719C165.4 14.3471 164.983 13.8913 164.688 13.3047C164.396 12.7147 164.25 12.0237 164.25 11.2315C164.25 10.4493 164.396 9.75994 164.688 9.16335C164.983 8.56676 165.394 8.10109 165.921 7.76633C166.451 7.43158 167.071 7.2642 167.78 7.2642C168.211 7.2642 168.629 7.33546 169.033 7.47798C169.437 7.6205 169.8 7.84422 170.122 8.14915C170.443 8.45407 170.697 8.85014 170.882 9.33736C171.068 9.82126 171.161 10.4096 171.161 11.1023V11.6293H165.091V10.5156H169.704C169.704 10.1245 169.625 9.77817 169.466 9.47656C169.307 9.17164 169.083 8.93134 168.794 8.75568C168.509 8.58002 168.175 8.49219 167.79 8.49219C167.373 8.49219 167.008 8.59493 166.696 8.80043C166.388 9.0026 166.15 9.26776 165.981 9.59588C165.815 9.92069 165.732 10.2737 165.732 10.6548V11.5249C165.732 12.0353 165.821 12.4695 166 12.8274C166.183 13.1854 166.436 13.4588 166.761 13.6477C167.086 13.8333 167.465 13.9261 167.9 13.9261C168.181 13.9261 168.438 13.8864 168.67 13.8068C168.902 13.724 169.103 13.6013 169.272 13.4389C169.441 13.2765 169.57 13.076 169.659 12.8374L171.066 13.0909C170.954 13.5052 170.752 13.8681 170.46 14.1797C170.172 14.4879 169.809 14.7282 169.371 14.9006C168.937 15.0696 168.441 15.1541 167.885 15.1541ZM174.197 4.81818V15H172.71V4.81818H174.197ZM179.731 7.36364V8.55682H175.415V7.36364H179.731ZM176.599 15V6.47869C176.599 6.00142 176.703 5.60535 176.912 5.29048C177.121 4.9723 177.397 4.73532 177.742 4.57955C178.087 4.42045 178.461 4.34091 178.866 4.34091C179.164 4.34091 179.419 4.36577 179.631 4.41548C179.843 4.46188 180.001 4.50497 180.104 4.54474L179.756 5.74787C179.686 5.72798 179.597 5.70478 179.487 5.67827C179.378 5.64844 179.245 5.63352 179.089 5.63352C178.728 5.63352 178.47 5.72301 178.314 5.90199C178.161 6.08097 178.085 6.33949 178.085 6.67756V15H176.599ZM183.039 4.81818L182.91 12.0717H181.532L181.403 4.81818H183.039ZM182.223 15.0945C181.948 15.0945 181.713 14.9983 181.518 14.8061C181.322 14.6106 181.226 14.3752 181.229 14.1001C181.226 13.8284 181.322 13.5964 181.518 13.4041C181.713 13.2086 181.948 13.1108 182.223 13.1108C182.492 13.1108 182.724 13.2086 182.919 13.4041C183.115 13.5964 183.214 13.8284 183.218 14.1001C183.214 14.2824 183.166 14.4498 183.074 14.6023C182.984 14.7514 182.865 14.8707 182.716 14.9602C182.567 15.0497 182.402 15.0945 182.223 15.0945Z" fill="#272D37"/>
<g filter="url(#filter0_d_736_66318)">
<rect x="2" y="28" width="776" height="145" rx="6" fill="white" shape-rendering="crispEdges"/>
<path d="M19.321 56V45.0909H20.642V49.9489H26.4588V45.0909H27.7798V56H26.4588V51.1207H20.642V56H19.321ZM30.1541 56V47.8182H31.4112V56H30.1541ZM30.7933 46.4545C30.5483 46.4545 30.337 46.3711 30.1594 46.2042C29.9854 46.0373 29.8984 45.8366 29.8984 45.6023C29.8984 45.3679 29.9854 45.1673 30.1594 45.0004C30.337 44.8335 30.5483 44.75 30.7933 44.75C31.0383 44.75 31.2478 44.8335 31.4218 45.0004C31.5994 45.1673 31.6882 45.3679 31.6882 45.6023C31.6882 45.8366 31.5994 46.0373 31.4218 46.2042C31.2478 46.3711 31.0383 46.4545 30.7933 46.4545ZM35.2756 45.0909L35.1691 52.9318H33.9333L33.8267 45.0909H35.2756ZM34.5512 56.0852C34.2884 56.0852 34.0629 55.9911 33.8747 55.8029C33.6865 55.6147 33.5923 55.3892 33.5923 55.1264C33.5923 54.8636 33.6865 54.6381 33.8747 54.4499C34.0629 54.2617 34.2884 54.1676 34.5512 54.1676C34.8139 54.1676 35.0394 54.2617 35.2276 54.4499C35.4159 54.6381 35.51 54.8636 35.51 55.1264C35.51 55.3004 35.4656 55.4602 35.3768 55.6058C35.2916 55.7514 35.1762 55.8686 35.0306 55.9574C34.8885 56.0426 34.7287 56.0852 34.5512 56.0852ZM43.2987 45.0909V56H41.9777V45.0909H43.2987ZM52.2034 56.1918C51.6849 56.1918 51.2144 56.0941 50.7918 55.8988C50.3692 55.6999 50.0336 55.4141 49.785 55.0412C49.5365 54.6648 49.4122 54.2102 49.4122 53.6776C49.4122 53.2088 49.5045 52.8288 49.6892 52.5376C49.8738 52.2429 50.1206 52.0121 50.4296 51.8452C50.7385 51.6783 51.0794 51.554 51.4523 51.4723C51.8287 51.3871 52.2069 51.3196 52.5869 51.2699C53.084 51.206 53.4871 51.158 53.796 51.1261C54.1085 51.0906 54.3358 51.032 54.4779 50.9503C54.6235 50.8686 54.6963 50.7266 54.6963 50.5241V50.4815C54.6963 49.956 54.5524 49.5476 54.2648 49.2564C53.9807 48.9652 53.5492 48.8196 52.9704 48.8196C52.3703 48.8196 51.8997 48.951 51.5588 49.2138C51.2179 49.4766 50.9782 49.7571 50.8397 50.0554L49.6465 49.6293C49.8596 49.1321 50.1437 48.745 50.4988 48.468C50.8575 48.1875 51.2481 47.9922 51.6707 47.8821C52.0968 47.7685 52.5159 47.7116 52.9278 47.7116C53.1906 47.7116 53.4924 47.7436 53.8333 47.8075C54.1778 47.8679 54.5098 47.994 54.8294 48.1857C55.1526 48.3775 55.4207 48.6669 55.6338 49.054C55.8468 49.4411 55.9534 49.9595 55.9534 50.6094V56H54.6963V54.892H54.6323C54.5471 55.0696 54.4051 55.2596 54.2062 55.462C54.0073 55.6644 53.7428 55.8366 53.4125 55.9787C53.0823 56.1207 52.6792 56.1918 52.2034 56.1918ZM52.3951 55.0625C52.8923 55.0625 53.3113 54.9648 53.6522 54.7695C53.9967 54.5742 54.2559 54.3221 54.4299 54.0131C54.6075 53.7042 54.6963 53.3793 54.6963 53.0384V51.8878C54.643 51.9517 54.5258 52.0103 54.3447 52.0636C54.1671 52.1133 53.9612 52.1577 53.7268 52.1967C53.496 52.2322 53.2705 52.2642 53.0503 52.2926C52.8337 52.3175 52.6579 52.3388 52.523 52.3565C52.1963 52.3991 51.8909 52.4684 51.6068 52.5643C51.3262 52.6566 51.099 52.7969 50.9249 52.9851C50.7545 53.1697 50.6693 53.4219 50.6693 53.7415C50.6693 54.1783 50.8308 54.5085 51.154 54.7322C51.4807 54.9524 51.8944 55.0625 52.3951 55.0625ZM58.1478 56V47.8182H59.3623V49.0966H59.4689C59.6393 48.6598 59.9145 48.3207 60.2945 48.0792C60.6745 47.8342 61.1308 47.7116 61.6635 47.7116C62.2032 47.7116 62.6524 47.8342 63.0111 48.0792C63.3733 48.3207 63.6556 48.6598 63.8581 49.0966H63.9433C64.1528 48.674 64.4671 48.3384 64.8861 48.0898C65.3051 47.8377 65.8076 47.7116 66.3936 47.7116C67.1251 47.7116 67.7235 47.9407 68.1887 48.3988C68.6539 48.8533 68.8865 49.5618 68.8865 50.5241V56H67.6294V50.5241C67.6294 49.9205 67.4642 49.489 67.134 49.2298C66.8037 48.9705 66.4149 48.8409 65.9674 48.8409C65.3922 48.8409 64.9465 49.0149 64.6304 49.3629C64.3144 49.7074 64.1564 50.1442 64.1564 50.6733V56H62.8779V50.3963C62.8779 49.9311 62.727 49.5565 62.4252 49.2724C62.1233 48.9847 61.7345 48.8409 61.2586 48.8409C60.9319 48.8409 60.6265 48.9279 60.3424 49.1019C60.0619 49.2759 59.8346 49.5174 59.6606 49.8263C59.4902 50.1317 59.4049 50.4851 59.4049 50.8864V56H58.1478ZM77.6114 56.1918C77.0929 56.1918 76.6224 56.0941 76.1998 55.8988C75.7772 55.6999 75.4416 55.4141 75.193 55.0412C74.9445 54.6648 74.8202 54.2102 74.8202 53.6776C74.8202 53.2088 74.9125 52.8288 75.0972 52.5376C75.2818 52.2429 75.5286 52.0121 75.8376 51.8452C76.1465 51.6783 76.4874 51.554 76.8603 51.4723C77.2367 51.3871 77.6149 51.3196 77.9949 51.2699C78.492 51.206 78.8951 51.158 79.204 51.1261C79.5165 51.0906 79.7438 51.032 79.8859 50.9503C80.0315 50.8686 80.1043 50.7266 80.1043 50.5241V50.4815C80.1043 49.956 79.9604 49.5476 79.6728 49.2564C79.3887 48.9652 78.9572 48.8196 78.3784 48.8196C77.7783 48.8196 77.3077 48.951 76.9668 49.2138C76.6259 49.4766 76.3862 49.7571 76.2477 50.0554L75.0545 49.6293C75.2676 49.1321 75.5517 48.745 75.9068 48.468C76.2655 48.1875 76.6561 47.9922 77.0787 47.8821C77.5048 47.7685 77.9239 47.7116 78.3358 47.7116C78.5986 47.7116 78.9004 47.7436 79.2413 47.8075C79.5858 47.8679 79.9178 47.994 80.2374 48.1857C80.5606 48.3775 80.8287 48.6669 81.0418 49.054C81.2548 49.4411 81.3614 49.9595 81.3614 50.6094V56H80.1043V54.892H80.0403C79.9551 55.0696 79.8131 55.2596 79.6142 55.462C79.4153 55.6644 79.1508 55.8366 78.8205 55.9787C78.4903 56.1207 78.0872 56.1918 77.6114 56.1918ZM77.8031 55.0625C78.3003 55.0625 78.7193 54.9648 79.0602 54.7695C79.4047 54.5742 79.6639 54.3221 79.8379 54.0131C80.0155 53.7042 80.1043 53.3793 80.1043 53.0384V51.8878C80.051 51.9517 79.9338 52.0103 79.7527 52.0636C79.5751 52.1133 79.3692 52.1577 79.1348 52.1967C78.904 52.2322 78.6785 52.2642 78.4583 52.2926C78.2417 52.3175 78.0659 52.3388 77.931 52.3565C77.6043 52.3991 77.2989 52.4684 77.0148 52.5643C76.7342 52.6566 76.507 52.7969 76.333 52.9851C76.1625 53.1697 76.0773 53.4219 76.0773 53.7415C76.0773 54.1783 76.2388 54.5085 76.562 54.7322C76.8887 54.9524 77.3024 55.0625 77.8031 55.0625ZM87.6746 59.0682V47.8182H88.8891V49.1179H89.0382C89.1306 48.9759 89.2584 48.7947 89.4218 48.5746C89.5887 48.3509 89.8266 48.152 90.1355 47.978C90.448 47.8004 90.8706 47.7116 91.4033 47.7116C92.0922 47.7116 92.6995 47.8839 93.225 48.2283C93.7506 48.5728 94.1607 49.0611 94.4555 49.6932C94.7502 50.3253 94.8976 51.071 94.8976 51.9304C94.8976 52.7969 94.7502 53.5479 94.4555 54.1836C94.1607 54.8157 93.7524 55.3058 93.2303 55.6538C92.7083 55.9982 92.1064 56.1705 91.4246 56.1705C90.899 56.1705 90.4782 56.0835 90.1622 55.9094C89.8461 55.7319 89.6029 55.5312 89.4324 55.3075C89.262 55.0803 89.1306 54.892 89.0382 54.7429H88.9317V59.0682H87.6746ZM88.9104 51.9091C88.9104 52.527 89.0009 53.0721 89.1821 53.5444C89.3632 54.0131 89.6277 54.3807 89.9757 54.647C90.3237 54.9098 90.7499 55.0412 91.2541 55.0412C91.7797 55.0412 92.2183 54.9027 92.5698 54.6257C92.9249 54.3452 93.1913 53.9687 93.3688 53.4964C93.5499 53.0206 93.6405 52.4915 93.6405 51.9091C93.6405 51.3338 93.5517 50.8153 93.3742 50.3537C93.2002 49.8885 92.9356 49.521 92.5805 49.2511C92.2289 48.9776 91.7868 48.8409 91.2541 48.8409C90.7428 48.8409 90.3131 48.9705 89.9651 49.2298C89.6171 49.4854 89.3543 49.8441 89.1767 50.3058C88.9992 50.7638 88.9104 51.2983 88.9104 51.9091ZM96.7152 56V47.8182H97.9297V49.054H98.0149C98.1641 48.6491 98.434 48.3207 98.8246 48.0685C99.2152 47.8164 99.6556 47.6903 100.146 47.6903C100.238 47.6903 100.353 47.6921 100.492 47.6957C100.63 47.6992 100.735 47.7045 100.806 47.7116V48.9901C100.764 48.9794 100.666 48.9634 100.513 48.9421C100.364 48.9173 100.206 48.9048 100.039 48.9048C99.6414 48.9048 99.2862 48.9883 98.9737 49.1552C98.6648 49.3185 98.4198 49.5458 98.2387 49.837C98.0611 50.1246 97.9723 50.4531 97.9723 50.8224V56H96.7152ZM105.271 56.1705C104.532 56.1705 103.884 55.9947 103.327 55.6431C102.773 55.2915 102.34 54.7997 102.027 54.1676C101.718 53.5355 101.564 52.7969 101.564 51.9517C101.564 51.0994 101.718 50.3555 102.027 49.7198C102.34 49.0842 102.773 48.5906 103.327 48.239C103.884 47.8874 104.532 47.7116 105.271 47.7116C106.01 47.7116 106.656 47.8874 107.21 48.239C107.768 48.5906 108.201 49.0842 108.51 49.7198C108.822 50.3555 108.978 51.0994 108.978 51.9517C108.978 52.7969 108.822 53.5355 108.51 54.1676C108.201 54.7997 107.768 55.2915 107.21 55.6431C106.656 55.9947 106.01 56.1705 105.271 56.1705ZM105.271 55.0412C105.832 55.0412 106.294 54.8974 106.656 54.6097C107.018 54.3221 107.286 53.9439 107.46 53.4751C107.634 53.0064 107.721 52.4986 107.721 51.9517C107.721 51.4048 107.634 50.8952 107.46 50.4229C107.286 49.9506 107.018 49.5689 106.656 49.2777C106.294 48.9865 105.832 48.8409 105.271 48.8409C104.71 48.8409 104.248 48.9865 103.886 49.2777C103.524 49.5689 103.256 49.9506 103.082 50.4229C102.908 50.8952 102.821 51.4048 102.821 51.9517C102.821 52.4986 102.908 53.0064 103.082 53.4751C103.256 53.9439 103.524 54.3221 103.886 54.6097C104.248 54.8974 104.71 55.0412 105.271 55.0412ZM114.441 47.8182V48.8835H110.03V47.8182H114.441ZM111.351 56V46.6889C111.351 46.2202 111.462 45.8295 111.682 45.517C111.902 45.2045 112.188 44.9702 112.539 44.8139C112.891 44.6577 113.262 44.5795 113.653 44.5795C113.962 44.5795 114.214 44.6044 114.409 44.6541C114.604 44.7038 114.75 44.75 114.846 44.7926L114.484 45.8793C114.42 45.858 114.331 45.8313 114.217 45.7994C114.107 45.7674 113.962 45.7514 113.78 45.7514C113.365 45.7514 113.065 45.8562 112.88 46.0657C112.699 46.2752 112.609 46.5824 112.609 46.9872V56H111.351ZM119.196 56.1705C118.408 56.1705 117.728 55.9964 117.156 55.6484C116.588 55.2969 116.149 54.8068 115.84 54.1783C115.535 53.5462 115.382 52.8111 115.382 51.973C115.382 51.1349 115.535 50.3963 115.84 49.7571C116.149 49.1143 116.579 48.6136 117.129 48.255C117.683 47.8928 118.33 47.7116 119.068 47.7116C119.494 47.7116 119.915 47.7827 120.331 47.9247C120.746 48.0668 121.124 48.2976 121.465 48.6172C121.806 48.9332 122.078 49.3523 122.28 49.8743C122.483 50.3963 122.584 51.0391 122.584 51.8026V52.3352H116.277V51.2486H121.306C121.306 50.7869 121.213 50.375 121.029 50.0128C120.847 49.6506 120.588 49.3647 120.251 49.1552C119.917 48.9457 119.523 48.8409 119.068 48.8409C118.568 48.8409 118.134 48.9652 117.769 49.2138C117.406 49.4588 117.128 49.7784 116.932 50.1726C116.737 50.5668 116.639 50.9893 116.639 51.4403V52.1648C116.639 52.7827 116.746 53.3065 116.959 53.7362C117.176 54.1623 117.476 54.4872 117.859 54.7109C118.243 54.9311 118.688 55.0412 119.196 55.0412C119.526 55.0412 119.825 54.995 120.091 54.9027C120.361 54.8068 120.594 54.6648 120.789 54.4766C120.984 54.2848 121.135 54.0469 121.242 53.7628L122.456 54.1037C122.328 54.5156 122.113 54.8778 121.812 55.1903C121.51 55.4993 121.137 55.7408 120.693 55.9148C120.249 56.0852 119.75 56.1705 119.196 56.1705ZM130.192 49.6506L129.062 49.9702C128.991 49.782 128.887 49.5991 128.748 49.4215C128.613 49.2404 128.429 49.0913 128.194 48.9741C127.96 48.8569 127.66 48.7983 127.294 48.7983C126.793 48.7983 126.376 48.9137 126.042 49.1445C125.712 49.3718 125.547 49.6612 125.547 50.0128C125.547 50.3253 125.66 50.5721 125.888 50.7532C126.115 50.9343 126.47 51.0852 126.953 51.206L128.168 51.5043C128.899 51.6818 129.444 51.9535 129.803 52.3192C130.162 52.6815 130.341 53.1484 130.341 53.7202C130.341 54.1889 130.206 54.608 129.936 54.9773C129.67 55.3466 129.297 55.6378 128.817 55.8509C128.338 56.0639 127.781 56.1705 127.145 56.1705C126.31 56.1705 125.62 55.9893 125.073 55.6271C124.526 55.2649 124.18 54.7358 124.034 54.0398L125.227 53.7415C125.341 54.1818 125.556 54.5121 125.872 54.7322C126.191 54.9524 126.609 55.0625 127.124 55.0625C127.709 55.0625 128.175 54.9382 128.519 54.6896C128.867 54.4375 129.041 54.1357 129.041 53.7841C129.041 53.5 128.942 53.2621 128.743 53.0703C128.544 52.875 128.239 52.7294 127.827 52.6335L126.463 52.3139C125.714 52.1364 125.163 51.8612 124.812 51.4883C124.464 51.1119 124.29 50.6413 124.29 50.0767C124.29 49.6151 124.419 49.2067 124.679 48.8516C124.941 48.4964 125.298 48.2177 125.749 48.0153C126.204 47.8129 126.719 47.7116 127.294 47.7116C128.104 47.7116 128.739 47.8892 129.201 48.2443C129.666 48.5994 129.996 49.0682 130.192 49.6506ZM137.929 49.6506L136.799 49.9702C136.728 49.782 136.624 49.5991 136.485 49.4215C136.35 49.2404 136.166 49.0913 135.931 48.9741C135.697 48.8569 135.397 48.7983 135.031 48.7983C134.53 48.7983 134.113 48.9137 133.779 49.1445C133.449 49.3718 133.284 49.6612 133.284 50.0128C133.284 50.3253 133.397 50.5721 133.625 50.7532C133.852 50.9343 134.207 51.0852 134.69 51.206L135.904 51.5043C136.636 51.6818 137.181 51.9535 137.54 52.3192C137.898 52.6815 138.078 53.1484 138.078 53.7202C138.078 54.1889 137.943 54.608 137.673 54.9773C137.407 55.3466 137.034 55.6378 136.554 55.8509C136.075 56.0639 135.517 56.1705 134.882 56.1705C134.047 56.1705 133.357 55.9893 132.81 55.6271C132.263 55.2649 131.917 54.7358 131.771 54.0398L132.964 53.7415C133.078 54.1818 133.293 54.5121 133.609 54.7322C133.928 54.9524 134.346 55.0625 134.86 55.0625C135.446 55.0625 135.912 54.9382 136.256 54.6896C136.604 54.4375 136.778 54.1357 136.778 53.7841C136.778 53.5 136.679 53.2621 136.48 53.0703C136.281 52.875 135.976 52.7294 135.564 52.6335L134.2 52.3139C133.451 52.1364 132.9 51.8612 132.549 51.4883C132.201 51.1119 132.027 50.6413 132.027 50.0767C132.027 49.6151 132.156 49.2067 132.416 48.8516C132.678 48.4964 133.035 48.2177 133.486 48.0153C133.941 47.8129 134.456 47.7116 135.031 47.7116C135.841 47.7116 136.476 47.8892 136.938 48.2443C137.403 48.5994 137.733 49.0682 137.929 49.6506ZM139.87 56V47.8182H141.127V56H139.87ZM140.509 46.4545C140.264 46.4545 140.053 46.3711 139.875 46.2042C139.701 46.0373 139.614 45.8366 139.614 45.6023C139.614 45.3679 139.701 45.1673 139.875 45.0004C140.053 44.8335 140.264 44.75 140.509 44.75C140.754 44.75 140.964 44.8335 141.138 45.0004C141.315 45.1673 141.404 45.3679 141.404 45.6023C141.404 45.8366 141.315 46.0373 141.138 46.2042C140.964 46.3711 140.754 46.4545 140.509 46.4545ZM146.654 56.1705C145.915 56.1705 145.267 55.9947 144.709 55.6431C144.155 55.2915 143.722 54.7997 143.41 54.1676C143.101 53.5355 142.946 52.7969 142.946 51.9517C142.946 51.0994 143.101 50.3555 143.41 49.7198C143.722 49.0842 144.155 48.5906 144.709 48.239C145.267 47.8874 145.915 47.7116 146.654 47.7116C147.392 47.7116 148.038 47.8874 148.592 48.239C149.15 48.5906 149.583 49.0842 149.892 49.7198C150.205 50.3555 150.361 51.0994 150.361 51.9517C150.361 52.7969 150.205 53.5355 149.892 54.1676C149.583 54.7997 149.15 55.2915 148.592 55.6431C148.038 55.9947 147.392 56.1705 146.654 56.1705ZM146.654 55.0412C147.215 55.0412 147.676 54.8974 148.038 54.6097C148.401 54.3221 148.669 53.9439 148.843 53.4751C149.017 53.0064 149.104 52.4986 149.104 51.9517C149.104 51.4048 149.017 50.8952 148.843 50.4229C148.669 49.9506 148.401 49.5689 148.038 49.2777C147.676 48.9865 147.215 48.8409 146.654 48.8409C146.092 48.8409 145.631 48.9865 145.269 49.2777C144.906 49.5689 144.638 49.9506 144.464 50.4229C144.29 50.8952 144.203 51.4048 144.203 51.9517C144.203 52.4986 144.29 53.0064 144.464 53.4751C144.638 53.9439 144.906 54.3221 145.269 54.6097C145.631 54.8974 146.092 55.0412 146.654 55.0412ZM153.437 51.0781V56H152.18V47.8182H153.394V49.0966H153.501C153.693 48.6811 153.984 48.3473 154.374 48.0952C154.765 47.8395 155.269 47.7116 155.887 47.7116C156.441 47.7116 156.926 47.8253 157.341 48.0526C157.757 48.2763 158.08 48.6172 158.311 49.0753C158.542 49.5298 158.657 50.1051 158.657 50.8011V56H157.4V50.8864C157.4 50.2436 157.233 49.7429 156.899 49.3842C156.566 49.022 156.107 48.8409 155.525 48.8409C155.124 48.8409 154.765 48.9279 154.449 49.1019C154.137 49.2759 153.89 49.5298 153.709 49.8636C153.528 50.1974 153.437 50.6023 153.437 51.0781ZM163.262 56.1918C162.743 56.1918 162.273 56.0941 161.85 55.8988C161.428 55.6999 161.092 55.4141 160.844 55.0412C160.595 54.6648 160.471 54.2102 160.471 53.6776C160.471 53.2088 160.563 52.8288 160.748 52.5376C160.932 52.2429 161.179 52.0121 161.488 51.8452C161.797 51.6783 162.138 51.554 162.511 51.4723C162.887 51.3871 163.265 51.3196 163.645 51.2699C164.143 51.206 164.546 51.158 164.855 51.1261C165.167 51.0906 165.394 51.032 165.536 50.9503C165.682 50.8686 165.755 50.7266 165.755 50.5241V50.4815C165.755 49.956 165.611 49.5476 165.323 49.2564C165.039 48.9652 164.608 48.8196 164.029 48.8196C163.429 48.8196 162.958 48.951 162.617 49.2138C162.277 49.4766 162.037 49.7571 161.898 50.0554L160.705 49.6293C160.918 49.1321 161.202 48.745 161.557 48.468C161.916 48.1875 162.307 47.9922 162.729 47.8821C163.155 47.7685 163.574 47.7116 163.986 47.7116C164.249 47.7116 164.551 47.7436 164.892 47.8075C165.236 47.8679 165.568 47.994 165.888 48.1857C166.211 48.3775 166.479 48.6669 166.692 49.054C166.905 49.4411 167.012 49.9595 167.012 50.6094V56H165.755V54.892H165.691C165.606 55.0696 165.464 55.2596 165.265 55.462C165.066 55.6644 164.801 55.8366 164.471 55.9787C164.141 56.1207 163.738 56.1918 163.262 56.1918ZM163.454 55.0625C163.951 55.0625 164.37 54.9648 164.711 54.7695C165.055 54.5742 165.315 54.3221 165.489 54.0131C165.666 53.7042 165.755 53.3793 165.755 53.0384V51.8878C165.702 51.9517 165.584 52.0103 165.403 52.0636C165.226 52.1133 165.02 52.1577 164.785 52.1967C164.555 52.2322 164.329 52.2642 164.109 52.2926C163.892 52.3175 163.716 52.3388 163.582 52.3565C163.255 52.3991 162.949 52.4684 162.665 52.5643C162.385 52.6566 162.158 52.7969 161.984 52.9851C161.813 53.1697 161.728 53.4219 161.728 53.7415C161.728 54.1783 161.889 54.5085 162.213 54.7322C162.539 54.9524 162.953 55.0625 163.454 55.0625ZM170.464 45.0909V56H169.206V45.0909H170.464ZM173.582 56.0852C173.319 56.0852 173.094 55.9911 172.906 55.8029C172.717 55.6147 172.623 55.3892 172.623 55.1264C172.623 54.8636 172.717 54.6381 172.906 54.4499C173.094 54.2617 173.319 54.1676 173.582 54.1676C173.845 54.1676 174.07 54.2617 174.259 54.4499C174.447 54.6381 174.541 54.8636 174.541 55.1264C174.541 55.3004 174.497 55.4602 174.408 55.6058C174.323 55.7514 174.207 55.8686 174.062 55.9574C173.92 56.0426 173.76 56.0852 173.582 56.0852ZM177.613 56.0852C177.35 56.0852 177.125 55.9911 176.937 55.8029C176.748 55.6147 176.654 55.3892 176.654 55.1264C176.654 54.8636 176.748 54.6381 176.937 54.4499C177.125 54.2617 177.35 54.1676 177.613 54.1676C177.876 54.1676 178.101 54.2617 178.29 54.4499C178.478 54.6381 178.572 54.8636 178.572 55.1264C178.572 55.3004 178.527 55.4602 178.439 55.6058C178.353 55.7514 178.238 55.8686 178.092 55.9574C177.95 56.0426 177.791 56.0852 177.613 56.0852ZM181.644 56.0852C181.381 56.0852 181.156 55.9911 180.967 55.8029C180.779 55.6147 180.685 55.3892 180.685 55.1264C180.685 54.8636 180.779 54.6381 180.967 54.4499C181.156 54.2617 181.381 54.1676 181.644 54.1676C181.907 54.1676 182.132 54.2617 182.32 54.4499C182.509 54.6381 182.603 54.8636 182.603 55.1264C182.603 55.3004 182.558 55.4602 182.47 55.6058C182.384 55.7514 182.269 55.8686 182.123 55.9574C181.981 56.0426 181.821 56.0852 181.644 56.0852Z" fill="#919BA7"/>
<rect x="2.5" y="28.5" width="775" height="144" rx="5.5" stroke="#DAE0E6" shape-rendering="crispEdges"/>
</g>
<defs>
<filter id="filter0_d_736_66318" x="0" y="27" width="780" height="149" filterUnits="userSpaceOnUse" color-interpolation-filters="sRGB">
<feFlood flood-opacity="0" result="BackgroundImageFix"/>
<feColorMatrix in="SourceAlpha" type="matrix" values="0 0 0 0 0 0 0 0 0 0 0 0 0 0 0 0 0 0 127 0" result="hardAlpha"/>
<feOffset dy="1"/>
<feGaussianBlur stdDeviation="1"/>
<feComposite in2="hardAlpha" operator="out"/>
<feColorMatrix type="matrix" values="0 0 0 0 0.0627451 0 0 0 0 0.0941176 0 0 0 0 0.156863 0 0 0 0.04 0"/>
<feBlend mode="normal" in2="BackgroundImageFix" result="effect1_dropShadow_736_66318"/>
<feBlend mode="normal" in="SourceGraphic" in2="effect1_dropShadow_736_66318" result="shape"/>
</filter>
</defs>
</svg>
