<svg width="380" height="77" viewBox="0 0 380 77" fill="none" xmlns="http://www.w3.org/2000/svg">
<path d="M3.11861 15V4.81818H6.74787C7.54001 4.81818 8.19626 4.96236 8.71662 5.25071C9.23698 5.53906 9.62642 5.93347 9.88494 6.43395C10.1435 6.93111 10.2727 7.49124 10.2727 8.11435C10.2727 8.74077 10.1418 9.30421 9.87997 9.80469C9.62145 10.3018 9.23035 10.6963 8.70668 10.9879C8.18632 11.2763 7.53172 11.4205 6.7429 11.4205H4.24716V10.1179H6.60369C7.10417 10.1179 7.51018 10.0317 7.82173 9.85938C8.13329 9.68371 8.36198 9.44508 8.50781 9.14347C8.65365 8.84186 8.72656 8.49882 8.72656 8.11435C8.72656 7.72988 8.65365 7.38849 8.50781 7.0902C8.36198 6.7919 8.13163 6.55824 7.81676 6.3892C7.50521 6.22017 7.09422 6.13565 6.58381 6.13565H4.65483V15H3.11861ZM14.9753 15.1541C14.2594 15.1541 13.6346 14.9901 13.101 14.6619C12.5674 14.3338 12.1531 13.8748 11.8581 13.2848C11.5631 12.6948 11.4156 12.0054 11.4156 11.2166C11.4156 10.4245 11.5631 9.73177 11.8581 9.13849C12.1531 8.54522 12.5674 8.08452 13.101 7.75639C13.6346 7.42827 14.2594 7.2642 14.9753 7.2642C15.6912 7.2642 16.316 7.42827 16.8496 7.75639C17.3832 8.08452 17.7975 8.54522 18.0925 9.13849C18.3875 9.73177 18.5349 10.4245 18.5349 11.2166C18.5349 12.0054 18.3875 12.6948 18.0925 13.2848C17.7975 13.8748 17.3832 14.3338 16.8496 14.6619C16.316 14.9901 15.6912 15.1541 14.9753 15.1541ZM14.9803 13.9062C15.4443 13.9062 15.8287 13.7836 16.1337 13.5384C16.4386 13.2931 16.664 12.9666 16.8098 12.5589C16.9589 12.1513 17.0335 11.7022 17.0335 11.2116C17.0335 10.7244 16.9589 10.277 16.8098 9.86932C16.664 9.45833 16.4386 9.12855 16.1337 8.87997C15.8287 8.63139 15.4443 8.5071 14.9803 8.5071C14.5129 8.5071 14.1251 8.63139 13.8169 8.87997C13.512 9.12855 13.2849 9.45833 13.1358 9.86932C12.99 10.277 12.917 10.7244 12.917 11.2116C12.917 11.7022 12.99 12.1513 13.1358 12.5589C13.2849 12.9666 13.512 13.2931 13.8169 13.5384C14.1251 13.7836 14.5129 13.9062 14.9803 13.9062ZM20.0942 15V7.36364H21.531V8.5767H21.6105C21.7498 8.16572 21.995 7.84257 22.3463 7.60724C22.701 7.36861 23.102 7.24929 23.5495 7.24929C23.6423 7.24929 23.7516 7.2526 23.8776 7.25923C24.0069 7.26586 24.1079 7.27415 24.1809 7.28409V8.70597C24.1212 8.68939 24.0151 8.67116 23.8627 8.65128C23.7102 8.62808 23.5578 8.61648 23.4053 8.61648C23.054 8.61648 22.7408 8.69105 22.4657 8.8402C22.1939 8.98603 21.9784 9.18987 21.8194 9.4517C21.6603 9.71023 21.5807 10.0052 21.5807 10.3366V15H20.0942ZM29.3831 7.36364V8.55682H25.2119V7.36364H29.3831ZM26.3305 5.53409H27.817V12.7578C27.817 13.0462 27.8601 13.2633 27.9463 13.4091C28.0324 13.5516 28.1435 13.6494 28.2794 13.7024C28.4186 13.7521 28.5694 13.777 28.7318 13.777C28.8511 13.777 28.9555 13.7687 29.045 13.7521C29.1345 13.7356 29.2041 13.7223 29.2538 13.7124L29.5223 14.9403C29.4361 14.9735 29.3135 15.0066 29.1544 15.0398C28.9953 15.0762 28.7964 15.0961 28.5578 15.0994C28.1667 15.1061 27.8021 15.0365 27.464 14.8906C27.126 14.7448 26.8525 14.5194 26.6437 14.2145C26.4349 13.9096 26.3305 13.5268 26.3305 13.0661V5.53409ZM34.5616 7.36364V8.55682H30.2463V7.36364H34.5616ZM31.4295 15V6.47869C31.4295 6.00142 31.5339 5.60535 31.7428 5.29048C31.9516 4.9723 32.2283 4.73532 32.573 4.57955C32.9177 4.42045 33.2922 4.34091 33.6966 4.34091C33.9949 4.34091 34.2501 4.36577 34.4622 4.41548C34.6743 4.46188 34.8318 4.50497 34.9345 4.54474L34.5865 5.74787C34.5169 5.72798 34.4274 5.70478 34.318 5.67827C34.2087 5.64844 34.0761 5.63352 33.9203 5.63352C33.559 5.63352 33.3005 5.72301 33.1447 5.90199C32.9923 6.08097 32.9161 6.33949 32.9161 6.67756V15H31.4295ZM38.9112 15.1541C38.1953 15.1541 37.5705 14.9901 37.0369 14.6619C36.5033 14.3338 36.089 13.8748 35.794 13.2848C35.4991 12.6948 35.3516 12.0054 35.3516 11.2166C35.3516 10.4245 35.4991 9.73177 35.794 9.13849C36.089 8.54522 36.5033 8.08452 37.0369 7.75639C37.5705 7.42827 38.1953 7.2642 38.9112 7.2642C39.6271 7.2642 40.2519 7.42827 40.7855 7.75639C41.3191 8.08452 41.7334 8.54522 42.0284 9.13849C42.3234 9.73177 42.4709 10.4245 42.4709 11.2166C42.4709 12.0054 42.3234 12.6948 42.0284 13.2848C41.7334 13.8748 41.3191 14.3338 40.7855 14.6619C40.2519 14.9901 39.6271 15.1541 38.9112 15.1541ZM38.9162 13.9062C39.3802 13.9062 39.7647 13.7836 40.0696 13.5384C40.3745 13.2931 40.5999 12.9666 40.7457 12.5589C40.8949 12.1513 40.9695 11.7022 40.9695 11.2116C40.9695 10.7244 40.8949 10.277 40.7457 9.86932C40.5999 9.45833 40.3745 9.12855 40.0696 8.87997C39.7647 8.63139 39.3802 8.5071 38.9162 8.5071C38.4489 8.5071 38.0611 8.63139 37.7528 8.87997C37.4479 9.12855 37.2209 9.45833 37.0717 9.86932C36.9259 10.277 36.853 10.7244 36.853 11.2116C36.853 11.7022 36.9259 12.1513 37.0717 12.5589C37.2209 12.9666 37.4479 13.2931 37.7528 13.5384C38.0611 13.7836 38.4489 13.9062 38.9162 13.9062ZM45.5167 4.81818V15H44.0302V4.81818H45.5167ZM47.4165 15V7.36364H48.903V15H47.4165ZM48.1672 6.18537C47.9087 6.18537 47.6866 6.09919 47.501 5.92685C47.3187 5.75118 47.2276 5.54238 47.2276 5.30043C47.2276 5.05516 47.3187 4.84635 47.501 4.67401C47.6866 4.49834 47.9087 4.41051 48.1672 4.41051C48.4257 4.41051 48.6461 4.49834 48.8284 4.67401C49.014 4.84635 49.1068 5.05516 49.1068 5.30043C49.1068 5.54238 49.014 5.75118 48.8284 5.92685C48.6461 6.09919 48.4257 6.18537 48.1672 6.18537ZM54.0194 15.1541C53.3035 15.1541 52.6788 14.9901 52.1451 14.6619C51.6115 14.3338 51.1972 13.8748 50.9022 13.2848C50.6073 12.6948 50.4598 12.0054 50.4598 11.2166C50.4598 10.4245 50.6073 9.73177 50.9022 9.13849C51.1972 8.54522 51.6115 8.08452 52.1451 7.75639C52.6788 7.42827 53.3035 7.2642 54.0194 7.2642C54.7353 7.2642 55.3601 7.42827 55.8937 7.75639C56.4273 8.08452 56.8416 8.54522 57.1366 9.13849C57.4316 9.73177 57.5791 10.4245 57.5791 11.2166C57.5791 12.0054 57.4316 12.6948 57.1366 13.2848C56.8416 13.8748 56.4273 14.3338 55.8937 14.6619C55.3601 14.9901 54.7353 15.1541 54.0194 15.1541ZM54.0244 13.9062C54.4884 13.9062 54.8729 13.7836 55.1778 13.5384C55.4827 13.2931 55.7081 12.9666 55.8539 12.5589C56.0031 12.1513 56.0777 11.7022 56.0777 11.2116C56.0777 10.7244 56.0031 10.277 55.8539 9.86932C55.7081 9.45833 55.4827 9.12855 55.1778 8.87997C54.8729 8.63139 54.4884 8.5071 54.0244 8.5071C53.5571 8.5071 53.1693 8.63139 52.861 8.87997C52.5561 9.12855 52.3291 9.45833 52.1799 9.86932C52.0341 10.277 51.9612 10.7244 51.9612 11.2116C51.9612 11.7022 52.0341 12.1513 52.1799 12.5589C52.3291 12.9666 52.5561 13.2931 52.861 13.5384C53.1693 13.7836 53.5571 13.9062 54.0244 13.9062Z" fill="#272D37"/>
<g filter="url(#filter0_d_736_66306)">
<g clip-path="url(#clip0_736_66306)">
<path d="M2.5 34C2.5 30.9624 4.96243 28.5 8 28.5H289.5V73.5H7.99999C4.96243 73.5 2.5 71.0376 2.5 68V34Z" fill="white"/>
<path d="M27.9716 45.0909V56H26.6932L20.7486 47.4347H20.642V56H19.321V45.0909H20.5994L26.5653 53.6776H26.6719V45.0909H27.9716ZM33.6684 56.1705C32.9297 56.1705 32.2817 55.9947 31.7241 55.6431C31.1702 55.2915 30.7369 54.7997 30.4244 54.1676C30.1155 53.5355 29.961 52.7969 29.961 51.9517C29.961 51.0994 30.1155 50.3555 30.4244 49.7198C30.7369 49.0842 31.1702 48.5906 31.7241 48.239C32.2817 47.8874 32.9297 47.7116 33.6684 47.7116C34.407 47.7116 35.0533 47.8874 35.6073 48.239C36.1648 48.5906 36.5981 49.0842 36.907 49.7198C37.2195 50.3555 37.3758 51.0994 37.3758 51.9517C37.3758 52.7969 37.2195 53.5355 36.907 54.1676C36.5981 54.7997 36.1648 55.2915 35.6073 55.6431C35.0533 55.9947 34.407 56.1705 33.6684 56.1705ZM33.6684 55.0412C34.2295 55.0412 34.6911 54.8974 35.0533 54.6097C35.4155 54.3221 35.6836 53.9439 35.8577 53.4751C36.0317 53.0064 36.1187 52.4986 36.1187 51.9517C36.1187 51.4048 36.0317 50.8952 35.8577 50.4229C35.6836 49.9506 35.4155 49.5689 35.0533 49.2777C34.6911 48.9865 34.2295 48.8409 33.6684 48.8409C33.1073 48.8409 32.6456 48.9865 32.2834 49.2777C31.9212 49.5689 31.6531 49.9506 31.4791 50.4229C31.3051 50.8952 31.2181 51.4048 31.2181 51.9517C31.2181 52.4986 31.3051 53.0064 31.4791 53.4751C31.6531 53.9439 31.9212 54.3221 32.2834 54.6097C32.6456 54.8974 33.1073 55.0412 33.6684 55.0412ZM46.9569 47.8182V48.8835H42.5464V47.8182H46.9569ZM43.8674 56V46.6889C43.8674 46.2202 43.9775 45.8295 44.1977 45.517C44.4179 45.2045 44.7037 44.9702 45.0553 44.8139C45.4069 44.6577 45.7779 44.5795 46.1686 44.5795C46.4775 44.5795 46.7297 44.6044 46.925 44.6541C47.1203 44.7038 47.2659 44.75 47.3618 44.7926L46.9995 45.8793C46.9356 45.858 46.8468 45.8313 46.7332 45.7994C46.6231 45.7674 46.4775 45.7514 46.2964 45.7514C45.8809 45.7514 45.5809 45.8562 45.3962 46.0657C45.2151 46.2752 45.1245 46.5824 45.1245 46.9872V56H43.8674ZM48.6187 56V47.8182H49.8758V56H48.6187ZM49.2579 46.4545C49.0129 46.4545 48.8016 46.3711 48.6241 46.2042C48.4501 46.0373 48.3631 45.8366 48.3631 45.6023C48.3631 45.3679 48.4501 45.1673 48.6241 45.0004C48.8016 44.8335 49.0129 44.75 49.2579 44.75C49.503 44.75 49.7125 44.8335 49.8865 45.0004C50.064 45.1673 50.1528 45.3679 50.1528 45.6023C50.1528 45.8366 50.064 46.0373 49.8865 46.2042C49.7125 46.3711 49.503 46.4545 49.2579 46.4545ZM53.3354 45.0909V56H52.0783V45.0909H53.3354ZM58.9683 56.1705C58.1799 56.1705 57.4999 55.9964 56.9281 55.6484C56.36 55.2969 55.9214 54.8068 55.6124 54.1783C55.3071 53.5462 55.1544 52.8111 55.1544 51.973C55.1544 51.1349 55.3071 50.3963 55.6124 49.7571C55.9214 49.1143 56.3511 48.6136 56.9015 48.255C57.4555 47.8928 58.1018 47.7116 58.8404 47.7116C59.2666 47.7116 59.6874 47.7827 60.1029 47.9247C60.5183 48.0668 60.8965 48.2976 61.2374 48.6172C61.5784 48.9332 61.85 49.3523 62.0524 49.8743C62.2548 50.3963 62.3561 51.0391 62.3561 51.8026V52.3352H56.0492V51.2486H61.0776C61.0776 50.7869 60.9853 50.375 60.8007 50.0128C60.6196 49.6506 60.3603 49.3647 60.023 49.1552C59.6892 48.9457 59.295 48.8409 58.8404 48.8409C58.3397 48.8409 57.9065 48.9652 57.5407 49.2138C57.1785 49.4588 56.8997 49.7784 56.7044 50.1726C56.5091 50.5668 56.4115 50.9893 56.4115 51.4403V52.1648C56.4115 52.7827 56.518 53.3065 56.7311 53.7362C56.9477 54.1623 57.2477 54.4872 57.6313 54.7109C58.0148 54.9311 58.4605 55.0412 58.9683 55.0412C59.2985 55.0412 59.5968 54.995 59.8632 54.9027C60.133 54.8068 60.3656 54.6648 60.561 54.4766C60.7563 54.2848 60.9072 54.0469 61.0137 53.7628L62.2282 54.1037C62.1004 54.5156 61.8855 54.8778 61.5837 55.1903C61.2818 55.4993 60.909 55.7408 60.4651 55.9148C60.0212 56.0852 59.5222 56.1705 58.9683 56.1705ZM71.611 56.1705C70.8439 56.1705 70.1834 55.9893 69.6294 55.6271C69.0754 55.2649 68.6493 54.766 68.351 54.1303C68.0527 53.4947 67.9036 52.7685 67.9036 51.9517C67.9036 51.1207 68.0563 50.3874 68.3617 49.7518C68.6706 49.1126 69.1003 48.6136 69.6507 48.255C70.2047 47.8928 70.851 47.7116 71.5896 47.7116C72.1649 47.7116 72.6834 47.8182 73.145 48.0312C73.6067 48.2443 73.9849 48.5426 74.2796 48.9261C74.5744 49.3097 74.7573 49.7571 74.8283 50.2685H73.5712C73.4753 49.8956 73.2622 49.5653 72.932 49.2777C72.6053 48.9865 72.1649 48.8409 71.611 48.8409C71.1209 48.8409 70.6912 48.9687 70.3219 49.2244C69.9561 49.4766 69.6703 49.8335 69.4643 50.2951C69.2619 50.7532 69.1607 51.2912 69.1607 51.9091C69.1607 52.5412 69.2601 53.0916 69.459 53.5604C69.6614 54.0291 69.9455 54.3931 70.3112 54.6523C70.6806 54.9116 71.1138 55.0412 71.611 55.0412C71.9377 55.0412 72.2342 54.9844 72.5005 54.8707C72.7669 54.7571 72.9923 54.5938 73.177 54.3807C73.3617 54.1676 73.4931 53.9119 73.5712 53.6136H74.8283C74.7573 54.0966 74.5815 54.5316 74.3009 54.9187C74.024 55.3022 73.6564 55.6076 73.1983 55.8349C72.7438 56.0586 72.2146 56.1705 71.611 56.1705ZM77.8231 51.0781V56H76.566V45.0909H77.8231V49.0966H77.9296C78.1214 48.674 78.409 48.3384 78.7926 48.0898C79.1796 47.8377 79.6945 47.7116 80.3373 47.7116C80.8948 47.7116 81.3831 47.8235 81.8021 48.0472C82.2212 48.2674 82.5461 48.6065 82.7769 49.0646C83.0113 49.5192 83.1285 50.098 83.1285 50.8011V56H81.8714V50.8864C81.8714 50.2365 81.7027 49.734 81.3654 49.3789C81.0316 49.0202 80.5681 48.8409 79.9751 48.8409C79.5632 48.8409 79.1938 48.9279 78.8671 49.1019C78.544 49.2759 78.2883 49.5298 78.1001 49.8636C77.9154 50.1974 77.8231 50.6023 77.8231 51.0781ZM88.6522 56.1705C87.9135 56.1705 87.2654 55.9947 86.7079 55.6431C86.1539 55.2915 85.7207 54.7997 85.4082 54.1676C85.0993 53.5355 84.9448 52.7969 84.9448 51.9517C84.9448 51.0994 85.0993 50.3555 85.4082 49.7198C85.7207 49.0842 86.1539 48.5906 86.7079 48.239C87.2654 47.8874 87.9135 47.7116 88.6522 47.7116C89.3908 47.7116 90.0371 47.8874 90.5911 48.239C91.1486 48.5906 91.5819 49.0842 91.8908 49.7198C92.2033 50.3555 92.3596 51.0994 92.3596 51.9517C92.3596 52.7969 92.2033 53.5355 91.8908 54.1676C91.5819 54.7997 91.1486 55.2915 90.5911 55.6431C90.0371 55.9947 89.3908 56.1705 88.6522 56.1705ZM88.6522 55.0412C89.2132 55.0412 89.6749 54.8974 90.0371 54.6097C90.3993 54.3221 90.6674 53.9439 90.8414 53.4751C91.0154 53.0064 91.1025 52.4986 91.1025 51.9517C91.1025 51.4048 91.0154 50.8952 90.8414 50.4229C90.6674 49.9506 90.3993 49.5689 90.0371 49.2777C89.6749 48.9865 89.2132 48.8409 88.6522 48.8409C88.0911 48.8409 87.6294 48.9865 87.2672 49.2777C86.905 49.5689 86.6369 49.9506 86.4629 50.4229C86.2889 50.8952 86.2019 51.4048 86.2019 51.9517C86.2019 52.4986 86.2889 53.0064 86.4629 53.4751C86.6369 53.9439 86.905 54.3221 87.2672 54.6097C87.6294 54.8974 88.0911 55.0412 88.6522 55.0412ZM99.974 49.6506L98.8447 49.9702C98.7737 49.782 98.6689 49.5991 98.5304 49.4215C98.3955 49.2404 98.2108 49.0913 97.9764 48.9741C97.7421 48.8569 97.442 48.7983 97.0762 48.7983C96.5755 48.7983 96.1583 48.9137 95.8245 49.1445C95.4942 49.3718 95.3291 49.6612 95.3291 50.0128C95.3291 50.3253 95.4427 50.5721 95.67 50.7532C95.8972 50.9343 96.2524 51.0852 96.7353 51.206L97.9498 51.5043C98.6813 51.6818 99.2264 51.9535 99.5851 52.3192C99.9438 52.6815 100.123 53.1484 100.123 53.7202C100.123 54.1889 99.9882 54.608 99.7183 54.9773C99.4519 55.3466 99.0791 55.6378 98.5997 55.8509C98.1203 56.0639 97.5627 56.1705 96.9271 56.1705C96.0926 56.1705 95.4019 55.9893 94.855 55.6271C94.3081 55.2649 93.9619 54.7358 93.8163 54.0398L95.0095 53.7415C95.1231 54.1818 95.3379 54.5121 95.654 54.7322C95.9736 54.9524 96.3909 55.0625 96.9058 55.0625C97.4917 55.0625 97.9569 54.9382 98.3014 54.6896C98.6494 54.4375 98.8234 54.1357 98.8234 53.7841C98.8234 53.5 98.724 53.2621 98.5251 53.0703C98.3262 52.875 98.0208 52.7294 97.6089 52.6335L96.2453 52.3139C95.496 52.1364 94.9455 51.8612 94.594 51.4883C94.246 51.1119 94.072 50.6413 94.072 50.0767C94.072 49.6151 94.2016 49.2067 94.4608 48.8516C94.7236 48.4964 95.0805 48.2177 95.5315 48.0153C95.986 47.8129 96.5009 47.7116 97.0762 47.7116C97.8859 47.7116 98.5215 47.8892 98.9832 48.2443C99.4484 48.5994 99.7786 49.0682 99.974 49.6506ZM105.346 56.1705C104.557 56.1705 103.877 55.9964 103.306 55.6484C102.738 55.2969 102.299 54.8068 101.99 54.1783C101.685 53.5462 101.532 52.8111 101.532 51.973C101.532 51.1349 101.685 50.3963 101.99 49.7571C102.299 49.1143 102.729 48.6136 103.279 48.255C103.833 47.8928 104.479 47.7116 105.218 47.7116C105.644 47.7116 106.065 47.7827 106.48 47.9247C106.896 48.0668 107.274 48.2976 107.615 48.6172C107.956 48.9332 108.228 49.3523 108.43 49.8743C108.632 50.3963 108.734 51.0391 108.734 51.8026V52.3352H102.427V51.2486H107.455C107.455 50.7869 107.363 50.375 107.178 50.0128C106.997 49.6506 106.738 49.3647 106.401 49.1552C106.067 48.9457 105.673 48.8409 105.218 48.8409C104.717 48.8409 104.284 48.9652 103.918 49.2138C103.556 49.4588 103.277 49.7784 103.082 50.1726C102.887 50.5668 102.789 50.9893 102.789 51.4403V52.1648C102.789 52.7827 102.896 53.3065 103.109 53.7362C103.325 54.1623 103.625 54.4872 104.009 54.7109C104.392 54.9311 104.838 55.0412 105.346 55.0412C105.676 55.0412 105.974 54.995 106.241 54.9027C106.511 54.8068 106.743 54.6648 106.938 54.4766C107.134 54.2848 107.285 54.0469 107.391 53.7628L108.606 54.1037C108.478 54.5156 108.263 54.8778 107.961 55.1903C107.659 55.4993 107.287 55.7408 106.843 55.9148C106.399 56.0852 105.9 56.1705 105.346 56.1705ZM111.803 51.0781V56H110.546V47.8182H111.76V49.0966H111.867C112.059 48.6811 112.35 48.3473 112.74 48.0952C113.131 47.8395 113.635 47.7116 114.253 47.7116C114.807 47.7116 115.292 47.8253 115.707 48.0526C116.123 48.2763 116.446 48.6172 116.677 49.0753C116.908 49.5298 117.023 50.1051 117.023 50.8011V56H115.766V50.8864C115.766 50.2436 115.599 49.7429 115.265 49.3842C114.932 49.022 114.473 48.8409 113.891 48.8409C113.49 48.8409 113.131 48.9279 112.815 49.1019C112.503 49.2759 112.256 49.5298 112.075 49.8636C111.894 50.1974 111.803 50.6023 111.803 51.0781Z" fill="#919BA7"/>
<path d="M2.5 34C2.5 30.9624 4.96243 28.5 8 28.5H289.5V73.5H7.99999C4.96243 73.5 2.5 71.0376 2.5 68V34Z" stroke="#DAE0E6"/>
<mask id="path-5-inside-1_736_66306" fill="white">
<path d="M290 28H372C375.314 28 378 30.6863 378 34V68C378 71.3137 375.314 74 372 74H290V28Z"/>
</mask>
<path d="M290 28H372C375.314 28 378 30.6863 378 34V68C378 71.3137 375.314 74 372 74H290V28Z" fill="#F7F7F8"/>
<path d="M315.953 45.0909H317.929V52.218C317.929 52.9993 317.744 53.6864 317.375 54.2795C317.009 54.8725 316.494 55.3359 315.83 55.6697C315.166 56 314.39 56.1651 313.502 56.1651C312.611 56.1651 311.833 56 311.169 55.6697C310.505 55.3359 309.99 54.8725 309.625 54.2795C309.259 53.6864 309.076 52.9993 309.076 52.218V45.0909H311.052V52.0529C311.052 52.5075 311.152 52.9123 311.35 53.2674C311.553 53.6225 311.837 53.9013 312.203 54.1037C312.569 54.3026 313.002 54.402 313.502 54.402C314.003 54.402 314.436 54.3026 314.802 54.1037C315.172 53.9013 315.456 53.6225 315.654 53.2674C315.853 52.9123 315.953 52.5075 315.953 52.0529V45.0909ZM319.992 59.0682V47.8182H321.888V49.1712H322C322.099 48.9723 322.24 48.761 322.421 48.5373C322.602 48.31 322.847 48.1165 323.156 47.9567C323.465 47.7933 323.859 47.7116 324.338 47.7116C324.97 47.7116 325.54 47.8732 326.048 48.1964C326.56 48.516 326.964 48.9901 327.263 49.6186C327.565 50.2436 327.715 51.0107 327.715 51.9197C327.715 52.8182 327.568 53.5817 327.273 54.2102C326.979 54.8388 326.577 55.3182 326.07 55.6484C325.562 55.9787 324.986 56.1438 324.344 56.1438C323.875 56.1438 323.486 56.0657 323.177 55.9094C322.868 55.7532 322.62 55.565 322.431 55.3448C322.247 55.1211 322.103 54.9098 322 54.7109H321.92V59.0682H319.992ZM321.883 51.9091C321.883 52.4382 321.957 52.9016 322.106 53.2994C322.259 53.6971 322.478 54.0078 322.762 54.2315C323.049 54.4517 323.397 54.5618 323.806 54.5618C324.232 54.5618 324.589 54.4482 324.876 54.2209C325.164 53.9901 325.381 53.6758 325.526 53.2781C325.675 52.8768 325.75 52.4205 325.75 51.9091C325.75 51.4013 325.677 50.9503 325.532 50.5561C325.386 50.1619 325.169 49.853 324.882 49.6293C324.594 49.4055 324.235 49.2937 323.806 49.2937C323.394 49.2937 323.044 49.402 322.756 49.6186C322.469 49.8352 322.25 50.1388 322.101 50.5295C321.956 50.9201 321.883 51.38 321.883 51.9091ZM331.295 45.0909V56H329.367V45.0909H331.295ZM336.847 56.1598C336.048 56.1598 335.355 55.984 334.769 55.6325C334.183 55.2809 333.729 54.7891 333.406 54.157C333.086 53.5249 332.926 52.7862 332.926 51.9411C332.926 51.0959 333.086 50.3555 333.406 49.7198C333.729 49.0842 334.183 48.5906 334.769 48.239C335.355 47.8874 336.048 47.7116 336.847 47.7116C337.646 47.7116 338.338 47.8874 338.924 48.239C339.51 48.5906 339.963 49.0842 340.282 49.7198C340.606 50.3555 340.767 51.0959 340.767 51.9411C340.767 52.7862 340.606 53.5249 340.282 54.157C339.963 54.7891 339.51 55.2809 338.924 55.6325C338.338 55.984 337.646 56.1598 336.847 56.1598ZM336.857 54.6151C337.291 54.6151 337.653 54.4961 337.944 54.2582C338.235 54.0167 338.452 53.6935 338.594 53.2887C338.74 52.8839 338.812 52.4329 338.812 51.9357C338.812 51.435 338.74 50.9822 338.594 50.5774C338.452 50.169 338.235 49.8441 337.944 49.6026C337.653 49.3612 337.291 49.2404 336.857 49.2404C336.414 49.2404 336.044 49.3612 335.749 49.6026C335.458 49.8441 335.24 50.169 335.094 50.5774C334.952 50.9822 334.881 51.435 334.881 51.9357C334.881 52.4329 334.952 52.8839 335.094 53.2887C335.24 53.6935 335.458 54.0167 335.749 54.2582C336.044 54.4961 336.414 54.6151 336.857 54.6151ZM344.758 56.1651C344.24 56.1651 343.773 56.0728 343.357 55.8881C342.945 55.6999 342.619 55.4229 342.377 55.0572C342.139 54.6914 342.02 54.2404 342.02 53.7042C342.02 53.2425 342.106 52.8608 342.276 52.5589C342.446 52.2571 342.679 52.0156 342.974 51.8345C343.269 51.6534 343.601 51.5167 343.97 51.4244C344.343 51.3285 344.728 51.2592 345.126 51.2166C345.605 51.1669 345.994 51.1225 346.292 51.0835C346.591 51.0408 346.807 50.9769 346.942 50.8917C347.081 50.8029 347.15 50.6662 347.15 50.4815V50.4496C347.15 50.0483 347.031 49.7376 346.793 49.5174C346.555 49.2972 346.212 49.1871 345.765 49.1871C345.293 49.1871 344.918 49.2901 344.641 49.4961C344.368 49.7021 344.183 49.9453 344.087 50.2259L342.287 49.9702C342.429 49.473 342.663 49.0575 342.99 48.7237C343.316 48.3864 343.716 48.1342 344.188 47.9673C344.661 47.7969 345.183 47.7116 345.754 47.7116C346.149 47.7116 346.541 47.7578 346.932 47.8501C347.322 47.9425 347.679 48.0952 348.002 48.3082C348.325 48.5178 348.585 48.8036 348.78 49.1658C348.979 49.5281 349.078 49.9808 349.078 50.5241V56H347.225V54.8761H347.161C347.043 55.1033 346.878 55.3164 346.665 55.5153C346.456 55.7106 346.191 55.8686 345.872 55.9893C345.555 56.1065 345.184 56.1651 344.758 56.1651ZM345.259 54.7482C345.646 54.7482 345.982 54.6719 346.266 54.5192C346.55 54.3629 346.768 54.157 346.921 53.9013C347.077 53.6456 347.155 53.3668 347.155 53.065V52.1009C347.095 52.1506 346.992 52.1967 346.846 52.2393C346.704 52.282 346.544 52.3192 346.367 52.3512C346.189 52.3832 346.014 52.4116 345.84 52.4364C345.666 52.4613 345.515 52.4826 345.387 52.5004C345.099 52.5394 344.842 52.6033 344.614 52.6921C344.387 52.7809 344.208 52.9052 344.076 53.065C343.945 53.2212 343.879 53.4237 343.879 53.6722C343.879 54.0273 344.009 54.2955 344.268 54.4766C344.527 54.6577 344.858 54.7482 345.259 54.7482ZM354.053 56.1438C353.411 56.1438 352.835 55.9787 352.328 55.6484C351.82 55.3182 351.418 54.8388 351.124 54.2102C350.829 53.5817 350.682 52.8182 350.682 51.9197C350.682 51.0107 350.831 50.2436 351.129 49.6186C351.431 48.9901 351.837 48.516 352.349 48.1964C352.86 47.8732 353.43 47.7116 354.059 47.7116C354.538 47.7116 354.932 47.7933 355.241 47.9567C355.55 48.1165 355.795 48.31 355.976 48.5373C356.157 48.761 356.298 48.9723 356.397 49.1712H356.477V45.0909H358.411V56H356.514V54.7109H356.397C356.298 54.9098 356.154 55.1211 355.966 55.3448C355.777 55.565 355.529 55.7532 355.22 55.9094C354.911 56.0657 354.522 56.1438 354.053 56.1438ZM354.591 54.5618C355 54.5618 355.348 54.4517 355.635 54.2315C355.923 54.0078 356.141 53.6971 356.291 53.2994C356.44 52.9016 356.514 52.4382 356.514 51.9091C356.514 51.38 356.44 50.9201 356.291 50.5295C356.145 50.1388 355.928 49.8352 355.641 49.6186C355.357 49.402 355.007 49.2937 354.591 49.2937C354.162 49.2937 353.803 49.4055 353.515 49.6293C353.228 49.853 353.011 50.1619 352.866 50.5561C352.72 50.9503 352.647 51.4013 352.647 51.9091C352.647 52.4205 352.72 52.8768 352.866 53.2781C353.015 53.6758 353.233 53.9901 353.521 54.2209C353.812 54.4482 354.169 54.5618 354.591 54.5618Z" fill="#272D37"/>
<path d="M290 27H372C375.866 27 379 30.134 379 34H377C377 31.2386 374.761 29 372 29H290V27ZM379 68C379 71.866 375.866 75 372 75H290V73H372C374.761 73 377 70.7614 377 68H379ZM290 74V28V74ZM372 27C375.866 27 379 30.134 379 34V68C379 71.866 375.866 75 372 75V73C374.761 73 377 70.7614 377 68V34C377 31.2386 374.761 29 372 29V27Z" fill="#DAE0E6" mask="url(#path-5-inside-1_736_66306)"/>
</g>
</g>
<defs>
<filter id="filter0_d_736_66306" x="0" y="27" width="380" height="50" filterUnits="userSpaceOnUse" color-interpolation-filters="sRGB">
<feFlood flood-opacity="0" result="BackgroundImageFix"/>
<feColorMatrix in="SourceAlpha" type="matrix" values="0 0 0 0 0 0 0 0 0 0 0 0 0 0 0 0 0 0 127 0" result="hardAlpha"/>
<feOffset dy="1"/>
<feGaussianBlur stdDeviation="1"/>
<feComposite in2="hardAlpha" operator="out"/>
<feColorMatrix type="matrix" values="0 0 0 0 0.0627451 0 0 0 0 0.0941176 0 0 0 0 0.156863 0 0 0 0.04 0"/>
<feBlend mode="normal" in2="BackgroundImageFix" result="effect1_dropShadow_736_66306"/>
<feBlend mode="normal" in="SourceGraphic" in2="effect1_dropShadow_736_66306" result="shape"/>
</filter>
<clipPath id="clip0_736_66306">
<rect x="2" y="28" width="376" height="46" rx="6" fill="white"/>
</clipPath>
</defs>
</svg>
