<svg width="380" height="77" viewBox="0 0 380 77" fill="none" xmlns="http://www.w3.org/2000/svg">
<path d="M3.11861 15V4.81818H9.43253V6.14062H4.65483V9.2429H8.98011V10.5604H4.65483V15H3.11861ZM15.4613 11.8331V7.36364H16.9527V15H15.4911V13.6776H15.4115C15.2359 14.0852 14.9542 14.425 14.5664 14.6967C14.1819 14.9652 13.703 15.0994 13.1296 15.0994C12.6391 15.0994 12.2049 14.9917 11.827 14.7763C11.4525 14.5575 11.1575 14.2344 10.9421 13.8068C10.73 13.3793 10.6239 12.8506 10.6239 12.2209V7.36364H12.1104V12.0419C12.1104 12.5623 12.2546 12.9766 12.5429 13.2848C12.8313 13.593 13.2058 13.7472 13.6665 13.7472C13.9449 13.7472 14.2217 13.6776 14.4968 13.5384C14.7752 13.3991 15.0055 13.1887 15.1878 12.907C15.3734 12.6252 15.4646 12.2673 15.4613 11.8331ZM20.3366 4.81818V15H18.8501V4.81818H20.3366ZM23.7229 4.81818V15H22.2364V4.81818H23.7229ZM37.5652 4.81818V15H36.1532L30.9778 7.53267H30.8833V15H29.3471V4.81818H30.769L35.9494 12.2955H36.0439V4.81818H37.5652ZM41.8091 15.169C41.3252 15.169 40.8877 15.0795 40.4966 14.9006C40.1055 14.7183 39.7956 14.4548 39.5669 14.1101C39.3415 13.7654 39.2288 13.3428 39.2288 12.8423C39.2288 12.4115 39.3117 12.0568 39.4774 11.7784C39.6431 11.5 39.8669 11.2796 40.1486 11.1172C40.4303 10.9548 40.7452 10.8321 41.0932 10.7493C41.4412 10.6664 41.7958 10.6035 42.1571 10.5604C42.6145 10.5073 42.9857 10.4643 43.2707 10.4311C43.5558 10.3946 43.7629 10.3366 43.8922 10.2571C44.0215 10.1776 44.0861 10.0483 44.0861 9.86932V9.83452C44.0861 9.40033 43.9634 9.06392 43.7182 8.82528C43.4762 8.58665 43.115 8.46733 42.6344 8.46733C42.1339 8.46733 41.7395 8.57836 41.4511 8.80043C41.1661 9.01918 40.9689 9.26278 40.8595 9.53125L39.4625 9.21307C39.6282 8.74905 39.8702 8.37453 40.1884 8.08949C40.5099 7.80114 40.8794 7.59233 41.297 7.46307C41.7146 7.33049 42.1538 7.2642 42.6145 7.2642C42.9194 7.2642 43.2426 7.30066 43.584 7.37358C43.9286 7.44318 44.2501 7.57244 44.5484 7.76136C44.85 7.95028 45.097 8.22041 45.2892 8.57173C45.4814 8.91974 45.5776 9.37216 45.5776 9.92898V15H44.1259V13.956H44.0662C43.9701 14.1482 43.8259 14.3371 43.6337 14.5227C43.4414 14.7083 43.1945 14.8625 42.8929 14.9851C42.5913 15.1077 42.23 15.169 41.8091 15.169ZM42.1322 13.9759C42.5432 13.9759 42.8946 13.8946 43.1862 13.7322C43.4812 13.5698 43.7049 13.3577 43.8574 13.0959C44.0132 12.8307 44.0911 12.5473 44.0911 12.2457V11.2614C44.038 11.3144 43.9353 11.3641 43.7828 11.4105C43.6337 11.4536 43.463 11.4917 43.2707 11.5249C43.0785 11.5547 42.8912 11.5829 42.709 11.6094C42.5267 11.6326 42.3742 11.6525 42.2516 11.669C41.9632 11.7055 41.6997 11.7668 41.4611 11.853C41.2258 11.9392 41.0368 12.0634 40.8943 12.2259C40.7551 12.3849 40.6855 12.5971 40.6855 12.8622C40.6855 13.2301 40.8214 13.5085 41.0932 13.6974C41.365 13.883 41.7113 13.9759 42.1322 13.9759ZM47.4575 15V7.36364H48.8843V8.60653H48.9788C49.1379 8.18561 49.3981 7.85748 49.7593 7.62216C50.1206 7.38352 50.5531 7.2642 51.0569 7.2642C51.5673 7.2642 51.9949 7.38352 52.3396 7.62216C52.6876 7.8608 52.9445 8.18892 53.1102 8.60653H53.1897C53.372 8.19886 53.662 7.87405 54.0598 7.6321C54.4575 7.38684 54.9315 7.2642 55.4816 7.2642C56.1743 7.2642 56.7395 7.4813 57.177 7.91548C57.6178 8.34967 57.8382 9.00426 57.8382 9.87926V15H56.3517V10.0185C56.3517 9.50142 56.2108 9.12689 55.9291 8.89489C55.6474 8.66288 55.3109 8.54688 54.9199 8.54688C54.4359 8.54688 54.0598 8.69602 53.7913 8.99432C53.5228 9.2893 53.3886 9.6688 53.3886 10.1328V15H51.9071V9.92401C51.9071 9.50971 51.7778 9.17661 51.5193 8.92472C51.2608 8.67282 50.9243 8.54688 50.51 8.54688C50.2283 8.54688 49.9681 8.62145 49.7295 8.7706C49.4942 8.91643 49.3036 9.12026 49.1578 9.3821C49.0153 9.64394 48.944 9.94721 48.944 10.2919V15H47.4575ZM63.0217 15.1541C62.2694 15.1541 61.6214 14.9934 61.0778 14.6719C60.5376 14.3471 60.12 13.8913 59.825 13.3047C59.5333 12.7147 59.3875 12.0237 59.3875 11.2315C59.3875 10.4493 59.5333 9.75994 59.825 9.16335C60.12 8.56676 60.531 8.10109 61.058 7.76633C61.5883 7.43158 62.2081 7.2642 62.9173 7.2642C63.3482 7.2642 63.7658 7.33546 64.1702 7.47798C64.5745 7.6205 64.9375 7.84422 65.2589 8.14915C65.5804 8.45407 65.834 8.85014 66.0196 9.33736C66.2052 9.82126 66.298 10.4096 66.298 11.1023V11.6293H60.2277V10.5156H64.8413C64.8413 10.1245 64.7618 9.77817 64.6027 9.47656C64.4436 9.17164 64.2199 8.93134 63.9315 8.75568C63.6465 8.58002 63.3117 8.49219 62.9273 8.49219C62.5097 8.49219 62.1451 8.59493 61.8335 8.80043C61.5253 9.0026 61.2866 9.26776 61.1176 9.59588C60.9519 9.92069 60.869 10.2737 60.869 10.6548V11.5249C60.869 12.0353 60.9585 12.4695 61.1375 12.8274C61.3198 13.1854 61.5733 13.4588 61.8982 13.6477C62.223 13.8333 62.6025 13.9261 63.0366 13.9261C63.3184 13.9261 63.5752 13.8864 63.8072 13.8068C64.0393 13.724 64.2398 13.6013 64.4088 13.4389C64.5778 13.2765 64.7071 13.076 64.7966 12.8374L66.2036 13.0909C66.0909 13.5052 65.8887 13.8681 65.597 14.1797C65.3087 14.4879 64.9457 14.7282 64.5082 14.9006C64.0741 15.0696 63.5786 15.1541 63.0217 15.1541Z" fill="#272D37"/>
<g filter="url(#filter0_d_736_66279)">
<rect x="2" y="28" width="376" height="46" rx="6" fill="white"/>
<path d="M20.642 45.0909V56H19.321V45.0909H20.642ZM24.2774 51.0781V56H23.0203V47.8182H24.2348V49.0966H24.3413C24.5331 48.6811 24.8243 48.3473 25.2149 48.0952C25.6055 47.8395 26.1098 47.7116 26.7277 47.7116C27.2817 47.7116 27.7664 47.8253 28.1819 48.0526C28.5974 48.2763 28.9205 48.6172 29.1513 49.0753C29.3822 49.5298 29.4976 50.1051 29.4976 50.8011V56H28.2405V50.8864C28.2405 50.2436 28.0736 49.7429 27.7398 49.3842C27.4059 49.022 26.9479 48.8409 26.3655 48.8409C25.9642 48.8409 25.6055 48.9279 25.2895 49.1019C24.977 49.2759 24.7302 49.5298 24.5491 49.8636C24.368 50.1974 24.2774 50.6023 24.2774 51.0781ZM31.6947 59.0682V47.8182H32.9092V49.1179H33.0583C33.1507 48.9759 33.2785 48.7947 33.4419 48.5746C33.6088 48.3509 33.8467 48.152 34.1556 47.978C34.4681 47.8004 34.8907 47.7116 35.4234 47.7116C36.1123 47.7116 36.7196 47.8839 37.2451 48.2283C37.7707 48.5728 38.1809 49.0611 38.4756 49.6932C38.7703 50.3253 38.9177 51.071 38.9177 51.9304C38.9177 52.7969 38.7703 53.5479 38.4756 54.1836C38.1809 54.8157 37.7725 55.3058 37.2505 55.6538C36.7284 55.9982 36.1265 56.1705 35.4447 56.1705C34.9191 56.1705 34.4983 56.0835 34.1823 55.9094C33.8662 55.7319 33.623 55.5312 33.4525 55.3075C33.2821 55.0803 33.1507 54.892 33.0583 54.7429H32.9518V59.0682H31.6947ZM32.9305 51.9091C32.9305 52.527 33.0211 53.0721 33.2022 53.5444C33.3833 54.0131 33.6478 54.3807 33.9958 54.647C34.3439 54.9098 34.77 55.0412 35.2743 55.0412C35.7998 55.0412 36.2384 54.9027 36.59 54.6257C36.9451 54.3452 37.2114 53.9687 37.389 53.4964C37.5701 53.0206 37.6606 52.4915 37.6606 51.9091C37.6606 51.3338 37.5718 50.8153 37.3943 50.3537C37.2203 49.8885 36.9557 49.521 36.6006 49.2511C36.249 48.9776 35.8069 48.8409 35.2743 48.8409C34.7629 48.8409 34.3332 48.9705 33.9852 49.2298C33.6372 49.4854 33.3744 49.8441 33.1968 50.3058C33.0193 50.7638 32.9305 51.2983 32.9305 51.9091ZM45.8916 52.6548V47.8182H47.1487V56H45.8916V54.6151H45.8064C45.6146 55.0305 45.3163 55.3839 44.9115 55.6751C44.5066 55.9627 43.9953 56.1065 43.3774 56.1065C42.866 56.1065 42.4115 55.9947 42.0137 55.771C41.616 55.5437 41.3035 55.2028 41.0762 54.7482C40.849 54.2901 40.7353 53.7131 40.7353 53.017V47.8182H41.9924V52.9318C41.9924 53.5284 42.1593 54.0043 42.4931 54.3594C42.8305 54.7145 43.2602 54.892 43.7822 54.892C44.0947 54.892 44.4125 54.8121 44.7357 54.6523C45.0624 54.4925 45.3358 54.2475 45.556 53.9173C45.7797 53.587 45.8916 53.1662 45.8916 52.6548ZM52.9094 47.8182V48.8835H48.6693V47.8182H52.9094ZM49.9051 45.858H51.1622V53.6562C51.1622 54.0114 51.2137 54.2777 51.3167 54.4553C51.4232 54.6293 51.5582 54.7464 51.7215 54.8068C51.8884 54.8636 52.0642 54.892 52.2489 54.892C52.3874 54.892 52.501 54.8849 52.5898 54.8707C52.6786 54.853 52.7496 54.8388 52.8029 54.8281L53.0585 55.9574C52.9733 55.9893 52.8544 56.0213 52.7017 56.0533C52.549 56.0888 52.3554 56.1065 52.121 56.1065C51.7659 56.1065 51.4179 56.0302 51.077 55.8775C50.7396 55.7248 50.4591 55.4922 50.2354 55.1797C50.0152 54.8672 49.9051 54.473 49.9051 53.9972V45.858Z" fill="#919BA7"/>
<rect x="2.5" y="28.5" width="375" height="45" rx="5.5" stroke="#DAE0E6"/>
</g>
<defs>
<filter id="filter0_d_736_66279" x="0" y="27" width="380" height="50" filterUnits="userSpaceOnUse" color-interpolation-filters="sRGB">
<feFlood flood-opacity="0" result="BackgroundImageFix"/>
<feColorMatrix in="SourceAlpha" type="matrix" values="0 0 0 0 0 0 0 0 0 0 0 0 0 0 0 0 0 0 127 0" result="hardAlpha"/>
<feOffset dy="1"/>
<feGaussianBlur stdDeviation="1"/>
<feComposite in2="hardAlpha" operator="out"/>
<feColorMatrix type="matrix" values="0 0 0 0 0.0627451 0 0 0 0 0.0941176 0 0 0 0 0.156863 0 0 0 0.04 0"/>
<feBlend mode="normal" in2="BackgroundImageFix" result="effect1_dropShadow_736_66279"/>
<feBlend mode="normal" in="SourceGraphic" in2="effect1_dropShadow_736_66279" result="shape"/>
</filter>
</defs>
</svg>
