<svg width="32" height="32" viewBox="0 0 32 32" fill="none" xmlns="http://www.w3.org/2000/svg">
<g id="Icon">
<path id="Icon_2" fill-rule="evenodd" clip-rule="evenodd" d="M1.33325 15.9999C1.33325 7.89974 7.89974 1.33325 15.9999 1.33325C24.1001 1.33325 30.6666 7.89974 30.6666 15.9999C30.6666 24.1001 24.1001 30.6666 15.9999 30.6666C7.89974 30.6666 1.33325 24.1001 1.33325 15.9999ZM15.9999 5.33325C16.7363 5.33325 17.3333 5.93021 17.3333 6.66658V11.8518C17.3333 12.5881 16.7363 13.1851 15.9999 13.1851C15.2635 13.1851 14.6666 12.5881 14.6666 11.8518V6.66658C14.6666 5.93021 15.2635 5.33325 15.9999 5.33325ZM25.3333 17.3333C26.0696 17.3333 26.6666 16.7363 26.6666 15.9999C26.6666 15.2635 26.0696 14.6666 25.3333 14.6666H20.1481C19.4117 14.6666 18.8147 15.2635 18.8147 15.9999C18.8147 16.7363 19.4117 17.3333 20.1481 17.3333H25.3333ZM15.9999 18.8147C16.7363 18.8147 17.3333 19.4117 17.3333 20.1481V25.3333C17.3333 26.0696 16.7363 26.6666 15.9999 26.6666C15.2635 26.6666 14.6666 26.0696 14.6666 25.3333V20.1481C14.6666 19.4117 15.2635 18.8147 15.9999 18.8147ZM11.8518 17.3333C12.5881 17.3333 13.1851 16.7363 13.1851 15.9999C13.1851 15.2635 12.5881 14.6666 11.8518 14.6666H6.66658C5.93021 14.6666 5.33325 15.2635 5.33325 15.9999C5.33325 16.7363 5.93021 17.3333 6.66658 17.3333H11.8518Z" fill="white"/>
</g>
</svg>
