<svg width="32" height="32" viewBox="0 0 32 32" fill="none" xmlns="http://www.w3.org/2000/svg">
<g id="Icon">
<path id="Icon_2" d="M24 11.9999C26.9455 11.9999 29.3333 9.6121 29.3333 6.66658C29.3333 3.72107 26.9455 1.33325 24 1.33325C21.0544 1.33325 18.6666 3.72107 18.6666 6.66658C18.6666 7.16954 18.7362 7.65624 18.8664 8.11757L11.7887 12.2462C10.8222 11.2708 9.48163 10.6666 7.99996 10.6666C5.05444 10.6666 2.66663 13.0544 2.66663 15.9999C2.66663 18.9454 5.05444 21.3333 7.99996 21.3333C9.48163 21.3333 10.8222 20.7291 11.7887 19.7536L18.8664 23.8823C18.7362 24.3436 18.6666 24.8303 18.6666 25.3333C18.6666 28.2788 21.0544 30.6666 24 30.6666C26.9455 30.6666 29.3333 28.2788 29.3333 25.3333C29.3333 22.3877 26.9455 19.9999 24 19.9999C22.5183 19.9999 21.1777 20.6041 20.2113 21.5796L13.1335 17.4509C13.2637 16.9896 13.3333 16.5029 13.3333 15.9999C13.3333 15.497 13.2637 15.0103 13.1335 14.5489L20.2113 10.4203C21.1777 11.3957 22.5183 11.9999 24 11.9999Z" fill="white"/>
</g>
</svg>
