<svg width="88" height="46" viewBox="0 0 88 46" fill="none" xmlns="http://www.w3.org/2000/svg">
<path d="M0 0H82C85.3137 0 88 2.68629 88 6V40C88 43.3137 85.3137 46 82 46H0V0Z" fill="#437EF7"/>
<path d="M25.0046 20.0898C24.9549 19.6246 24.7454 19.2624 24.3761 19.0032C24.0103 18.744 23.5344 18.6143 22.9485 18.6143C22.5366 18.6143 22.1832 18.6765 21.8885 18.8008C21.5938 18.9251 21.3683 19.0937 21.212 19.3068C21.0558 19.5199 20.9759 19.7631 20.9723 20.0366C20.9723 20.2638 21.0238 20.4609 21.1268 20.6278C21.2333 20.7947 21.3771 20.9368 21.5582 21.054C21.7393 21.1676 21.94 21.2635 22.1602 21.3416C22.3803 21.4197 22.6023 21.4854 22.826 21.5387L23.8487 21.7944C24.2607 21.8903 24.6566 22.0199 25.0366 22.1832C25.4201 22.3466 25.7628 22.5526 26.0646 22.8011C26.37 23.0497 26.6115 23.3498 26.7891 23.7013C26.9666 24.0529 27.0554 24.4648 27.0554 24.9371C27.0554 25.5763 26.892 26.1392 26.5653 26.6257C26.2386 27.1087 25.7663 27.4869 25.1484 27.7603C24.5341 28.0302 23.7901 28.1651 22.9165 28.1651C22.0678 28.1651 21.331 28.0337 20.706 27.771C20.0845 27.5082 19.598 27.1246 19.2464 26.6204C18.8984 26.1161 18.7102 25.5018 18.6818 24.7773H20.6261C20.6545 25.1573 20.7717 25.4734 20.9776 25.7255C21.1836 25.9776 21.4517 26.1658 21.782 26.2901C22.1158 26.4144 22.4886 26.4766 22.9006 26.4766C23.3303 26.4766 23.7067 26.4126 24.0298 26.2848C24.3565 26.1534 24.6122 25.9723 24.7969 25.7415C24.9815 25.5071 25.0756 25.2337 25.0792 24.9212C25.0756 24.6371 24.9922 24.4027 24.8288 24.218C24.6655 24.0298 24.4364 23.8736 24.1417 23.7493C23.8505 23.6214 23.5096 23.5078 23.119 23.4084L21.8778 23.0888C20.9794 22.858 20.2692 22.5082 19.7472 22.0394C19.2287 21.5671 18.9695 20.9403 18.9695 20.1591C18.9695 19.5163 19.1435 18.9535 19.4915 18.4705C19.843 17.9876 20.3207 17.6129 20.9244 17.3466C21.5281 17.0767 22.2116 16.9418 22.9751 16.9418C23.7493 16.9418 24.4276 17.0767 25.0099 17.3466C25.5959 17.6129 26.0558 17.984 26.3896 18.4599C26.7234 18.9322 26.8956 19.4755 26.9062 20.0898H25.0046ZM33.9468 24.5589V19.8182H35.8751V28H34.0054V26.5458H33.9202C33.7355 27.0039 33.4319 27.3786 33.0093 27.6697C32.5903 27.9609 32.0736 28.1065 31.4593 28.1065C30.923 28.1065 30.449 27.9876 30.037 27.7496C29.6286 27.5082 29.309 27.1584 29.0782 26.7003C28.8474 26.2386 28.732 25.6811 28.732 25.0277V19.8182H30.6602V24.7294C30.6602 25.2479 30.8023 25.6598 31.0864 25.9652C31.3705 26.2706 31.7433 26.4233 32.205 26.4233C32.4891 26.4233 32.7643 26.354 33.0306 26.2156C33.297 26.0771 33.5154 25.8711 33.6858 25.5977C33.8598 25.3207 33.9468 24.9744 33.9468 24.5589ZM37.9432 28V17.0909H39.8714V21.1712H39.9513C40.0508 20.9723 40.1911 20.761 40.3722 20.5373C40.5533 20.31 40.7983 20.1165 41.1072 19.9567C41.4162 19.7933 41.8104 19.7116 42.2898 19.7116C42.9219 19.7116 43.4918 19.8732 43.9996 20.1964C44.511 20.516 44.9158 20.9901 45.2141 21.6186C45.516 22.2436 45.6669 23.0107 45.6669 23.9197C45.6669 24.8182 45.5195 25.5817 45.2248 26.2102C44.93 26.8388 44.5288 27.3182 44.021 27.6484C43.5131 27.9787 42.9379 28.1438 42.2951 28.1438C41.8263 28.1438 41.4375 28.0657 41.1286 27.9094C40.8196 27.7532 40.571 27.565 40.3828 27.3448C40.1982 27.1211 40.0543 26.9098 39.9513 26.7109H39.8395V28H37.9432ZM39.8342 23.9091C39.8342 24.4382 39.9087 24.9016 40.0579 25.2994C40.2106 25.6971 40.429 26.0078 40.7131 26.2315C41.0007 26.4517 41.3487 26.5618 41.7571 26.5618C42.1832 26.5618 42.5401 26.4482 42.8278 26.2209C43.1154 25.9901 43.332 25.6758 43.4776 25.2781C43.6268 24.8768 43.7013 24.4205 43.7013 23.9091C43.7013 23.4013 43.6286 22.9503 43.483 22.5561C43.3374 22.1619 43.1207 21.853 42.8331 21.6293C42.5455 21.4055 42.1868 21.2937 41.7571 21.2937C41.3452 21.2937 40.9954 21.402 40.7077 21.6186C40.4201 21.8352 40.2017 22.1388 40.0526 22.5295C39.907 22.9201 39.8342 23.38 39.8342 23.9091ZM47.3062 28V19.8182H49.1492V21.2085H49.2451C49.4156 20.7397 49.6979 20.3739 50.0921 20.1112C50.4862 19.8448 50.9568 19.7116 51.5036 19.7116C52.0576 19.7116 52.5246 19.8466 52.9046 20.1165C53.2881 20.3828 53.558 20.7468 53.7142 21.2085H53.7994C53.9806 20.7539 54.286 20.3917 54.7156 20.1218C55.1489 19.8484 55.662 19.7116 56.2551 19.7116C57.0079 19.7116 57.6222 19.9496 58.0981 20.4254C58.574 20.9013 58.8119 21.5955 58.8119 22.5082V28H56.8783V22.8065C56.8783 22.2987 56.7433 21.9276 56.4735 21.6932C56.2036 21.4553 55.8733 21.3363 55.4827 21.3363C55.0175 21.3363 54.6535 21.4819 54.3907 21.7731C54.1315 22.0607 54.0019 22.4354 54.0019 22.897V28H52.1109V22.7266C52.1109 22.304 51.983 21.9666 51.7274 21.7145C51.4752 21.4624 51.145 21.3363 50.7366 21.3363C50.4596 21.3363 50.2075 21.4073 49.9802 21.5494C49.7529 21.6879 49.5718 21.8849 49.4369 22.1406C49.3019 22.3928 49.2345 22.6875 49.2345 23.0249V28H47.3062ZM60.7681 28V19.8182H62.6964V28H60.7681ZM61.7376 18.657C61.4322 18.657 61.1694 18.5558 60.9492 18.3533C60.729 18.1474 60.619 17.9006 60.619 17.6129C60.619 17.3217 60.729 17.0749 60.9492 16.8725C61.1694 16.6665 61.4322 16.5636 61.7376 16.5636C62.0465 16.5636 62.3093 16.6665 62.5259 16.8725C62.7461 17.0749 62.8562 17.3217 62.8562 17.6129C62.8562 17.9006 62.7461 18.1474 62.5259 18.3533C62.3093 18.5558 62.0465 18.657 61.7376 18.657ZM68.7648 19.8182V21.3097H64.0613V19.8182H68.7648ZM65.2226 17.858H67.1508V25.5391C67.1508 25.7983 67.1899 25.9972 67.268 26.1357C67.3497 26.2706 67.4562 26.3629 67.5876 26.4126C67.719 26.4624 67.8646 26.4872 68.0244 26.4872C68.1452 26.4872 68.2552 26.4783 68.3547 26.4606C68.4577 26.4428 68.5358 26.4268 68.589 26.4126L68.914 27.9201C68.811 27.9556 68.6636 27.9947 68.4719 28.0373C68.2836 28.0799 68.0528 28.1048 67.7794 28.1119C67.2964 28.1261 66.8614 28.0533 66.4743 27.8935C66.0873 27.7301 65.7801 27.478 65.5528 27.1371C65.3291 26.7962 65.219 26.37 65.2226 25.8587V17.858Z" fill="white"/>
</svg>
