<svg width="24" height="24" viewBox="0 0 24 24" fill="none" xmlns="http://www.w3.org/2000/svg">
<g clip-path="url(#clip0_3_74641)">
<path d="M23.7628 12.2763C23.7628 11.4605 23.6967 10.6404 23.5556 9.83789H12.2368V14.4589H18.7185C18.4496 15.9492 17.5853 17.2676 16.3199 18.1054V21.1037H20.1869C22.4577 19.0137 23.7628 15.9272 23.7628 12.2763Z" fill="white"/>
<path d="M12.2373 23.9994C15.4737 23.9994 18.2031 22.9367 20.1917 21.1024L16.3247 18.1041C15.2489 18.836 13.8599 19.2505 12.2417 19.2505C9.11108 19.2505 6.45666 17.1384 5.50424 14.2988H1.51379V17.3898C3.55091 21.4419 7.70009 23.9994 12.2373 23.9994Z" fill="white"/>
<path d="M5.49972 14.3007C4.99706 12.8103 4.99706 11.1965 5.49972 9.70618V6.61523H1.51368C-0.188318 10.006 -0.188318 14.0009 1.51368 17.3916L5.49972 14.3007Z" fill="white"/>
<path d="M12.2373 4.74966C13.9481 4.7232 15.6016 5.36697 16.8406 6.54867L20.2667 3.12262C18.0973 1.0855 15.218 -0.034466 12.2373 0.000808666C7.70009 0.000808666 3.55091 2.55822 1.51379 6.61481L5.49983 9.70575C6.44784 6.86173 9.10667 4.74966 12.2373 4.74966Z" fill="white"/>
</g>
<defs>
<clipPath id="clip0_3_74641">
<rect width="24" height="24" fill="white"/>
</clipPath>
</defs>
</svg>
