<svg width="48" height="48" viewBox="0 0 48 48" fill="none" xmlns="http://www.w3.org/2000/svg">
<rect width="48" height="48" rx="24" fill="#437EF7"/>
<path d="M19.9738 21.0056C20.8218 22.7716 21.9777 24.4268 23.4415 25.8907C24.9054 27.3545 26.5606 28.5104 28.3266 29.3584C28.4785 29.4313 28.5545 29.4678 28.6506 29.4958C28.9921 29.5953 29.4115 29.5238 29.7008 29.3167C29.7822 29.2584 29.8518 29.1888 29.9911 29.0495C30.417 28.6236 30.63 28.4106 30.8441 28.2714C31.6517 27.7463 32.6928 27.7463 33.5004 28.2714C33.7146 28.4106 33.9275 28.6236 34.3534 29.0495L34.5908 29.2869C35.2383 29.9344 35.562 30.2581 35.7379 30.6058C36.0876 31.2972 36.0876 32.1138 35.7379 32.8052C35.562 33.1529 35.2383 33.4766 34.5908 34.1241L34.3988 34.3161C33.7536 34.9613 33.431 35.284 32.9923 35.5304C32.5056 35.8038 31.7497 36.0003 31.1914 35.9987C30.6884 35.9972 30.3445 35.8996 29.6569 35.7044C25.9614 34.6555 22.4742 32.6765 19.565 29.7672C16.6557 26.858 14.6767 23.3708 13.6278 19.6753C13.4326 18.9877 13.335 18.6438 13.3335 18.1407C13.3318 17.5825 13.5284 16.8266 13.8018 16.3399C14.0482 15.9012 14.3708 15.5786 15.0161 14.9334L15.2081 14.7414C15.8556 14.0939 16.1793 13.7702 16.527 13.5943C17.2184 13.2446 18.035 13.2446 18.7264 13.5943C19.0741 13.7702 19.3978 14.0939 20.0453 14.7414L20.2827 14.9788C20.7086 15.4047 20.9216 15.6176 21.0608 15.8318C21.5859 16.6394 21.5859 17.6805 21.0608 18.4881C20.9216 18.7022 20.7086 18.9152 20.2827 19.3411C20.1434 19.4804 20.0738 19.55 20.0155 19.6314C19.8084 19.9206 19.7369 20.34 19.8364 20.6816C19.8644 20.7777 19.9009 20.8537 19.9738 21.0056Z" fill="white"/>
</svg>
